<?xml version="1.0" encoding="utf-8" standalone="no"?>
<!DOCTYPE svg PUBLIC "-//W3C//DTD SVG 1.1//EN"
  "http://www.w3.org/Graphics/SVG/1.1/DTD/svg11.dtd">
<svg xmlns:xlink="http://www.w3.org/1999/xlink" width="720pt" height="216pt" viewBox="0 0 720 216" xmlns="http://www.w3.org/2000/svg" version="1.1">
 <metadata>
  <rdf:RDF xmlns:dc="http://purl.org/dc/elements/1.1/" xmlns:cc="http://creativecommons.org/ns#" xmlns:rdf="http://www.w3.org/1999/02/22-rdf-syntax-ns#">
   <cc:Work>
    <dc:type rdf:resource="http://purl.org/dc/dcmitype/StillImage"/>
    <dc:date>2024-08-27T18:18:03.905230</dc:date>
    <dc:format>image/svg+xml</dc:format>
    <dc:creator>
     <cc:Agent>
      <dc:title>Matplotlib v3.7.5, https://matplotlib.org/</dc:title>
     </cc:Agent>
    </dc:creator>
   </cc:Work>
  </rdf:RDF>
 </metadata>
 <defs>
  <style type="text/css">*{stroke-linejoin: round; stroke-linecap: butt}</style>
 </defs>
 <g id="figure_1">
  <g id="patch_1">
   <path d="M 0 216 
L 720 216 
L 720 0 
L 0 0 
z
" style="fill: #ffffff"/>
  </g>
  <g id="axes_1">
   <g id="patch_2">
    <path d="M 7.2 213.84 
L 214.729412 213.84 
L 214.729412 2.16 
L 7.2 2.16 
z
" style="fill: #ffffff"/>
   </g>
   <g id="matplotlib.axis_1">
    <g id="xtick_1">
     <g id="line2d_1">
      <path d="M 16.633155 213.84 
L 16.633155 2.16 
" clip-path="url(#p0fa611ce63)" style="fill: none; stroke: #b0b0b0; stroke-width: 0.8; stroke-linecap: square"/>
     </g>
     <g id="line2d_2"/>
     <g id="text_1">
      <!-- 0 -->
      <g transform="translate(13.451905 224.938437) scale(0.1 -0.1)">
       <defs>
        <path id="DejaVuSans-30" d="M 2034 4250 
Q 1547 4250 1301 3770 
Q 1056 3291 1056 2328 
Q 1056 1369 1301 889 
Q 1547 409 2034 409 
Q 2525 409 2770 889 
Q 3016 1369 3016 2328 
Q 3016 3291 2770 3770 
Q 2525 4250 2034 4250 
z
M 2034 4750 
Q 2819 4750 3233 4129 
Q 3647 3509 3647 2328 
Q 3647 1150 3233 529 
Q 2819 -91 2034 -91 
Q 1250 -91 836 529 
Q 422 1150 422 2328 
Q 422 3509 836 4129 
Q 1250 4750 2034 4750 
z
" transform="scale(0.015625)"/>
       </defs>
       <use xlink:href="#DejaVuSans-30"/>
      </g>
     </g>
    </g>
    <g id="xtick_2">
     <g id="line2d_3">
      <path d="M 63.857961 213.84 
L 63.857961 2.16 
" clip-path="url(#p0fa611ce63)" style="fill: none; stroke: #b0b0b0; stroke-width: 0.8; stroke-linecap: square"/>
     </g>
     <g id="line2d_4"/>
     <g id="text_2">
      <!-- 200 -->
      <g transform="translate(54.314211 224.938437) scale(0.1 -0.1)">
       <defs>
        <path id="DejaVuSans-32" d="M 1228 531 
L 3431 531 
L 3431 0 
L 469 0 
L 469 531 
Q 828 903 1448 1529 
Q 2069 2156 2228 2338 
Q 2531 2678 2651 2914 
Q 2772 3150 2772 3378 
Q 2772 3750 2511 3984 
Q 2250 4219 1831 4219 
Q 1534 4219 1204 4116 
Q 875 4013 500 3803 
L 500 4441 
Q 881 4594 1212 4672 
Q 1544 4750 1819 4750 
Q 2544 4750 2975 4387 
Q 3406 4025 3406 3419 
Q 3406 3131 3298 2873 
Q 3191 2616 2906 2266 
Q 2828 2175 2409 1742 
Q 1991 1309 1228 531 
z
" transform="scale(0.015625)"/>
       </defs>
       <use xlink:href="#DejaVuSans-32"/>
       <use xlink:href="#DejaVuSans-30" x="63.623047"/>
       <use xlink:href="#DejaVuSans-30" x="127.246094"/>
      </g>
     </g>
    </g>
    <g id="xtick_3">
     <g id="line2d_5">
      <path d="M 111.082768 213.84 
L 111.082768 2.16 
" clip-path="url(#p0fa611ce63)" style="fill: none; stroke: #b0b0b0; stroke-width: 0.8; stroke-linecap: square"/>
     </g>
     <g id="line2d_6"/>
     <g id="text_3">
      <!-- 400 -->
      <g transform="translate(101.539018 224.938437) scale(0.1 -0.1)">
       <defs>
        <path id="DejaVuSans-34" d="M 2419 4116 
L 825 1625 
L 2419 1625 
L 2419 4116 
z
M 2253 4666 
L 3047 4666 
L 3047 1625 
L 3713 1625 
L 3713 1100 
L 3047 1100 
L 3047 0 
L 2419 0 
L 2419 1100 
L 313 1100 
L 313 1709 
L 2253 4666 
z
" transform="scale(0.015625)"/>
       </defs>
       <use xlink:href="#DejaVuSans-34"/>
       <use xlink:href="#DejaVuSans-30" x="63.623047"/>
       <use xlink:href="#DejaVuSans-30" x="127.246094"/>
      </g>
     </g>
    </g>
    <g id="xtick_4">
     <g id="line2d_7">
      <path d="M 158.307574 213.84 
L 158.307574 2.16 
" clip-path="url(#p0fa611ce63)" style="fill: none; stroke: #b0b0b0; stroke-width: 0.8; stroke-linecap: square"/>
     </g>
     <g id="line2d_8"/>
     <g id="text_4">
      <!-- 600 -->
      <g transform="translate(148.763824 224.938437) scale(0.1 -0.1)">
       <defs>
        <path id="DejaVuSans-36" d="M 2113 2584 
Q 1688 2584 1439 2293 
Q 1191 2003 1191 1497 
Q 1191 994 1439 701 
Q 1688 409 2113 409 
Q 2538 409 2786 701 
Q 3034 994 3034 1497 
Q 3034 2003 2786 2293 
Q 2538 2584 2113 2584 
z
M 3366 4563 
L 3366 3988 
Q 3128 4100 2886 4159 
Q 2644 4219 2406 4219 
Q 1781 4219 1451 3797 
Q 1122 3375 1075 2522 
Q 1259 2794 1537 2939 
Q 1816 3084 2150 3084 
Q 2853 3084 3261 2657 
Q 3669 2231 3669 1497 
Q 3669 778 3244 343 
Q 2819 -91 2113 -91 
Q 1303 -91 875 529 
Q 447 1150 447 2328 
Q 447 3434 972 4092 
Q 1497 4750 2381 4750 
Q 2619 4750 2861 4703 
Q 3103 4656 3366 4563 
z
" transform="scale(0.015625)"/>
       </defs>
       <use xlink:href="#DejaVuSans-36"/>
       <use xlink:href="#DejaVuSans-30" x="63.623047"/>
       <use xlink:href="#DejaVuSans-30" x="127.246094"/>
      </g>
     </g>
    </g>
    <g id="xtick_5">
     <g id="line2d_9">
      <path d="M 205.532381 213.84 
L 205.532381 2.16 
" clip-path="url(#p0fa611ce63)" style="fill: none; stroke: #b0b0b0; stroke-width: 0.8; stroke-linecap: square"/>
     </g>
     <g id="line2d_10"/>
     <g id="text_5">
      <!-- 800 -->
      <g transform="translate(195.988631 224.938437) scale(0.1 -0.1)">
       <defs>
        <path id="DejaVuSans-38" d="M 2034 2216 
Q 1584 2216 1326 1975 
Q 1069 1734 1069 1313 
Q 1069 891 1326 650 
Q 1584 409 2034 409 
Q 2484 409 2743 651 
Q 3003 894 3003 1313 
Q 3003 1734 2745 1975 
Q 2488 2216 2034 2216 
z
M 1403 2484 
Q 997 2584 770 2862 
Q 544 3141 544 3541 
Q 544 4100 942 4425 
Q 1341 4750 2034 4750 
Q 2731 4750 3128 4425 
Q 3525 4100 3525 3541 
Q 3525 3141 3298 2862 
Q 3072 2584 2669 2484 
Q 3125 2378 3379 2068 
Q 3634 1759 3634 1313 
Q 3634 634 3220 271 
Q 2806 -91 2034 -91 
Q 1263 -91 848 271 
Q 434 634 434 1313 
Q 434 1759 690 2068 
Q 947 2378 1403 2484 
z
M 1172 3481 
Q 1172 3119 1398 2916 
Q 1625 2713 2034 2713 
Q 2441 2713 2670 2916 
Q 2900 3119 2900 3481 
Q 2900 3844 2670 4047 
Q 2441 4250 2034 4250 
Q 1625 4250 1398 4047 
Q 1172 3844 1172 3481 
z
" transform="scale(0.015625)"/>
       </defs>
       <use xlink:href="#DejaVuSans-38"/>
       <use xlink:href="#DejaVuSans-30" x="63.623047"/>
       <use xlink:href="#DejaVuSans-30" x="127.246094"/>
      </g>
     </g>
    </g>
   </g>
   <g id="matplotlib.axis_2">
    <g id="ytick_1">
     <g id="line2d_11">
      <path d="M 7.2 212.018331 
L 214.729412 212.018331 
" clip-path="url(#p0fa611ce63)" style="fill: none; stroke: #b0b0b0; stroke-width: 0.8; stroke-linecap: square"/>
     </g>
     <g id="line2d_12"/>
     <g id="text_6">
      <!-- 0.00 -->
      <g transform="translate(-18.565625 215.81755) scale(0.1 -0.1)">
       <defs>
        <path id="DejaVuSans-2e" d="M 684 794 
L 1344 794 
L 1344 0 
L 684 0 
L 684 794 
z
" transform="scale(0.015625)"/>
       </defs>
       <use xlink:href="#DejaVuSans-30"/>
       <use xlink:href="#DejaVuSans-2e" x="63.623047"/>
       <use xlink:href="#DejaVuSans-30" x="95.410156"/>
       <use xlink:href="#DejaVuSans-30" x="159.033203"/>
      </g>
     </g>
    </g>
    <g id="ytick_2">
     <g id="line2d_13">
      <path d="M 7.2 182.717887 
L 214.729412 182.717887 
" clip-path="url(#p0fa611ce63)" style="fill: none; stroke: #b0b0b0; stroke-width: 0.8; stroke-linecap: square"/>
     </g>
     <g id="line2d_14"/>
     <g id="text_7">
      <!-- 0.01 -->
      <g transform="translate(-18.565625 186.517106) scale(0.1 -0.1)">
       <defs>
        <path id="DejaVuSans-31" d="M 794 531 
L 1825 531 
L 1825 4091 
L 703 3866 
L 703 4441 
L 1819 4666 
L 2450 4666 
L 2450 531 
L 3481 531 
L 3481 0 
L 794 0 
L 794 531 
z
" transform="scale(0.015625)"/>
       </defs>
       <use xlink:href="#DejaVuSans-30"/>
       <use xlink:href="#DejaVuSans-2e" x="63.623047"/>
       <use xlink:href="#DejaVuSans-30" x="95.410156"/>
       <use xlink:href="#DejaVuSans-31" x="159.033203"/>
      </g>
     </g>
    </g>
    <g id="ytick_3">
     <g id="line2d_15">
      <path d="M 7.2 153.417444 
L 214.729412 153.417444 
" clip-path="url(#p0fa611ce63)" style="fill: none; stroke: #b0b0b0; stroke-width: 0.8; stroke-linecap: square"/>
     </g>
     <g id="line2d_16"/>
     <g id="text_8">
      <!-- 0.02 -->
      <g transform="translate(-18.565625 157.216663) scale(0.1 -0.1)">
       <use xlink:href="#DejaVuSans-30"/>
       <use xlink:href="#DejaVuSans-2e" x="63.623047"/>
       <use xlink:href="#DejaVuSans-30" x="95.410156"/>
       <use xlink:href="#DejaVuSans-32" x="159.033203"/>
      </g>
     </g>
    </g>
    <g id="ytick_4">
     <g id="line2d_17">
      <path d="M 7.2 124.117 
L 214.729412 124.117 
" clip-path="url(#p0fa611ce63)" style="fill: none; stroke: #b0b0b0; stroke-width: 0.8; stroke-linecap: square"/>
     </g>
     <g id="line2d_18"/>
     <g id="text_9">
      <!-- 0.03 -->
      <g transform="translate(-18.565625 127.916219) scale(0.1 -0.1)">
       <defs>
        <path id="DejaVuSans-33" d="M 2597 2516 
Q 3050 2419 3304 2112 
Q 3559 1806 3559 1356 
Q 3559 666 3084 287 
Q 2609 -91 1734 -91 
Q 1441 -91 1130 -33 
Q 819 25 488 141 
L 488 750 
Q 750 597 1062 519 
Q 1375 441 1716 441 
Q 2309 441 2620 675 
Q 2931 909 2931 1356 
Q 2931 1769 2642 2001 
Q 2353 2234 1838 2234 
L 1294 2234 
L 1294 2753 
L 1863 2753 
Q 2328 2753 2575 2939 
Q 2822 3125 2822 3475 
Q 2822 3834 2567 4026 
Q 2313 4219 1838 4219 
Q 1578 4219 1281 4162 
Q 984 4106 628 3988 
L 628 4550 
Q 988 4650 1302 4700 
Q 1616 4750 1894 4750 
Q 2613 4750 3031 4423 
Q 3450 4097 3450 3541 
Q 3450 3153 3228 2886 
Q 3006 2619 2597 2516 
z
" transform="scale(0.015625)"/>
       </defs>
       <use xlink:href="#DejaVuSans-30"/>
       <use xlink:href="#DejaVuSans-2e" x="63.623047"/>
       <use xlink:href="#DejaVuSans-30" x="95.410156"/>
       <use xlink:href="#DejaVuSans-33" x="159.033203"/>
      </g>
     </g>
    </g>
    <g id="ytick_5">
     <g id="line2d_19">
      <path d="M 7.2 94.816557 
L 214.729412 94.816557 
" clip-path="url(#p0fa611ce63)" style="fill: none; stroke: #b0b0b0; stroke-width: 0.8; stroke-linecap: square"/>
     </g>
     <g id="line2d_20"/>
     <g id="text_10">
      <!-- 0.04 -->
      <g transform="translate(-18.565625 98.615775) scale(0.1 -0.1)">
       <use xlink:href="#DejaVuSans-30"/>
       <use xlink:href="#DejaVuSans-2e" x="63.623047"/>
       <use xlink:href="#DejaVuSans-30" x="95.410156"/>
       <use xlink:href="#DejaVuSans-34" x="159.033203"/>
      </g>
     </g>
    </g>
    <g id="ytick_6">
     <g id="line2d_21">
      <path d="M 7.2 65.516113 
L 214.729412 65.516113 
" clip-path="url(#p0fa611ce63)" style="fill: none; stroke: #b0b0b0; stroke-width: 0.8; stroke-linecap: square"/>
     </g>
     <g id="line2d_22"/>
     <g id="text_11">
      <!-- 0.05 -->
      <g transform="translate(-18.565625 69.315332) scale(0.1 -0.1)">
       <defs>
        <path id="DejaVuSans-35" d="M 691 4666 
L 3169 4666 
L 3169 4134 
L 1269 4134 
L 1269 2991 
Q 1406 3038 1543 3061 
Q 1681 3084 1819 3084 
Q 2600 3084 3056 2656 
Q 3513 2228 3513 1497 
Q 3513 744 3044 326 
Q 2575 -91 1722 -91 
Q 1428 -91 1123 -41 
Q 819 9 494 109 
L 494 744 
Q 775 591 1075 516 
Q 1375 441 1709 441 
Q 2250 441 2565 725 
Q 2881 1009 2881 1497 
Q 2881 1984 2565 2268 
Q 2250 2553 1709 2553 
Q 1456 2553 1204 2497 
Q 953 2441 691 2322 
L 691 4666 
z
" transform="scale(0.015625)"/>
       </defs>
       <use xlink:href="#DejaVuSans-30"/>
       <use xlink:href="#DejaVuSans-2e" x="63.623047"/>
       <use xlink:href="#DejaVuSans-30" x="95.410156"/>
       <use xlink:href="#DejaVuSans-35" x="159.033203"/>
      </g>
     </g>
    </g>
    <g id="ytick_7">
     <g id="line2d_23">
      <path d="M 7.2 36.21567 
L 214.729412 36.21567 
" clip-path="url(#p0fa611ce63)" style="fill: none; stroke: #b0b0b0; stroke-width: 0.8; stroke-linecap: square"/>
     </g>
     <g id="line2d_24"/>
     <g id="text_12">
      <!-- 0.06 -->
      <g transform="translate(-18.565625 40.014888) scale(0.1 -0.1)">
       <use xlink:href="#DejaVuSans-30"/>
       <use xlink:href="#DejaVuSans-2e" x="63.623047"/>
       <use xlink:href="#DejaVuSans-30" x="95.410156"/>
       <use xlink:href="#DejaVuSans-36" x="159.033203"/>
      </g>
     </g>
    </g>
    <g id="ytick_8">
     <g id="line2d_25">
      <path d="M 7.2 6.915226 
L 214.729412 6.915226 
" clip-path="url(#p0fa611ce63)" style="fill: none; stroke: #b0b0b0; stroke-width: 0.8; stroke-linecap: square"/>
     </g>
     <g id="line2d_26"/>
     <g id="text_13">
      <!-- 0.07 -->
      <g transform="translate(-18.565625 10.714445) scale(0.1 -0.1)">
       <defs>
        <path id="DejaVuSans-37" d="M 525 4666 
L 3525 4666 
L 3525 4397 
L 1831 0 
L 1172 0 
L 2766 4134 
L 525 4134 
L 525 4666 
z
" transform="scale(0.015625)"/>
       </defs>
       <use xlink:href="#DejaVuSans-30"/>
       <use xlink:href="#DejaVuSans-2e" x="63.623047"/>
       <use xlink:href="#DejaVuSans-30" x="95.410156"/>
       <use xlink:href="#DejaVuSans-37" x="159.033203"/>
      </g>
     </g>
    </g>
   </g>
   <g id="line2d_27">
    <path d="M 16.633155 197.245683 
L 17.813775 197.270855 
L 18.049899 197.398223 
L 19.230519 197.488423 
L 19.466643 197.615787 
L 19.702767 197.615787 
L 19.938892 197.47172 
L 20.647264 197.4849 
L 21.119512 197.593169 
L 22.064008 197.591765 
L 22.77238 197.531084 
L 27.258737 197.465628 
L 27.730985 197.363097 
L 28.203233 197.461181 
L 28.675481 197.435402 
L 29.147729 197.536352 
L 29.619977 197.561442 
L 29.856101 197.43321 
L 30.092225 197.43321 
L 30.328349 197.247091 
L 30.564473 197.247091 
L 30.800597 197.396698 
L 31.508969 197.426688 
L 31.981217 197.509623 
L 34.814706 197.533165 
L 35.05083 196.717089 
L 36.703698 196.81488 
L 36.939822 187.76207 
L 37.175946 187.907358 
L 37.41207 187.554666 
L 37.648194 187.410994 
L 38.120442 187.305675 
L 38.356566 187.261823 
L 38.59269 187.348796 
L 38.828814 186.791708 
L 39.064938 186.887086 
L 39.537186 186.871769 
L 39.77331 186.840881 
L 40.009434 186.560094 
L 40.245558 186.778484 
L 41.190054 186.862213 
L 41.426178 186.944516 
L 41.662302 186.885877 
L 42.134551 187.06635 
L 42.370675 186.873584 
L 42.606799 187.039427 
L 43.079047 187.089187 
L 43.315171 187.453534 
L 43.551295 187.446878 
L 43.787419 187.731292 
L 44.023543 187.545607 
L 44.495791 187.820868 
L 44.731915 187.761259 
L 44.968039 187.892305 
L 45.204163 180.91103 
L 45.676411 180.747145 
L 45.912535 180.882009 
L 46.148659 180.812451 
L 46.384783 180.870629 
L 46.620907 180.626272 
L 46.857031 180.861668 
L 47.093155 180.74652 
L 47.329279 179.919001 
L 47.565403 180.121299 
L 48.273775 180.109601 
L 48.509899 179.836738 
L 48.982147 179.754655 
L 49.218272 179.816398 
L 49.69052 179.668166 
L 49.926644 179.805267 
L 50.162768 178.868508 
L 50.635016 179.052534 
L 50.87114 178.954878 
L 51.107264 179.173748 
L 51.343388 178.899649 
L 51.579512 179.037593 
L 52.05176 178.816338 
L 52.287884 178.165556 
L 52.524008 178.349588 
L 52.760132 178.079108 
L 53.23238 178.423874 
L 53.704628 178.515014 
L 53.940752 175.72806 
L 54.649124 175.723342 
L 54.885248 176.03181 
L 55.121372 175.70278 
L 55.357496 175.919708 
L 55.829744 175.829201 
L 56.065868 175.88912 
L 56.301992 175.774764 
L 56.538116 175.862613 
L 57.010365 175.700013 
L 57.246489 176.022265 
L 57.482613 175.959857 
L 57.954861 176.065432 
L 58.427109 175.835657 
L 58.663233 176.057742 
L 58.899357 175.86544 
L 60.552225 175.496801 
L 60.788349 169.33783 
L 61.024473 169.407767 
L 61.260597 169.342204 
L 61.496721 169.127315 
L 61.968969 169.045718 
L 62.205093 169.170455 
L 62.677341 169.116337 
L 62.913465 169.396985 
L 63.385713 169.550514 
L 63.857961 169.316859 
L 64.094086 169.545643 
L 64.33021 169.475829 
L 64.566334 169.592 
L 64.802458 169.487423 
L 65.038582 167.782836 
L 65.274706 167.727964 
L 65.51083 167.958255 
L 65.983078 167.681681 
L 66.219202 167.693489 
L 66.455326 167.41301 
L 67.635946 167.409487 
L 68.108194 167.251603 
L 68.344318 167.371019 
L 68.580442 161.668628 
L 68.816566 161.35799 
L 69.288814 161.379073 
L 69.524938 158.092377 
L 69.761062 157.987612 
L 70.469434 158.341163 
L 70.705558 158.512882 
L 70.941682 146.425912 
L 71.177806 146.557544 
L 71.650055 146.413032 
L 72.594551 146.705599 
L 73.066799 146.523494 
L 73.302923 143.250748 
L 73.539047 143.080165 
L 74.247419 143.285617 
L 74.483543 141.50519 
L 74.719667 141.609349 
L 74.955791 141.57913 
L 75.191915 138.753752 
L 75.428039 138.546269 
L 75.664163 138.138278 
L 75.900287 136.873657 
L 76.136411 134.40124 
L 76.372535 134.65448 
L 76.608659 134.531132 
L 76.844783 134.673631 
L 77.080907 132.141218 
L 77.317031 124.281692 
L 77.553155 123.128527 
L 78.025403 123.008541 
L 78.261527 123.275157 
L 78.497651 123.141052 
L 78.733776 123.297801 
L 78.9699 122.861725 
L 79.442148 122.914129 
L 79.678272 122.725759 
L 80.622768 123.229095 
L 80.858892 123.140872 
L 81.567264 123.209529 
L 82.039512 123.149604 
L 82.275636 121.971618 
L 82.747884 121.954017 
L 82.984008 121.710492 
L 83.220132 121.942643 
L 83.456256 121.958388 
L 83.928504 121.469286 
L 84.164628 121.733692 
L 84.400752 120.29291 
L 84.873 120.677597 
L 85.109124 120.78086 
L 85.345248 118.909444 
L 85.581372 118.960811 
L 86.289745 119.526123 
L 86.998117 119.601875 
L 87.470365 119.732258 
L 87.706489 119.881775 
L 87.942613 118.159947 
L 88.178737 118.022862 
L 88.414861 116.061618 
L 88.650985 115.485816 
L 88.887109 115.385057 
L 89.359357 115.442864 
L 89.595481 115.350095 
L 89.831605 115.600623 
L 90.776101 115.755281 
L 91.012225 114.741045 
L 91.484473 114.757189 
L 91.956721 114.650864 
L 92.192845 110.774176 
L 92.665093 110.892355 
L 93.137341 110.767441 
L 93.373465 110.680141 
L 93.60959 111.031023 
L 93.845714 111.150458 
L 94.081838 110.867414 
L 94.317962 110.923999 
L 94.554086 110.807839 
L 95.026334 110.95144 
L 95.262458 108.324146 
L 95.734706 108.176965 
L 95.97083 108.194473 
L 96.679202 97.110119 
L 97.387574 97.058479 
L 97.623698 90.113531 
L 97.859822 90.110901 
L 98.095946 89.845518 
L 98.33207 89.854097 
L 98.568194 88.46132 
L 99.276566 88.109794 
L 99.748814 88.091031 
L 99.984938 87.442795 
L 100.221062 86.358418 
L 100.457186 85.825873 
L 100.69331 84.711326 
L 100.929435 84.28049 
L 101.165559 82.224479 
L 101.401683 82.449225 
L 101.637807 82.448188 
L 101.873931 82.571956 
L 102.818427 82.356652 
L 103.290675 82.629752 
L 103.526799 82.586757 
L 104.235171 82.954831 
L 104.471295 72.465511 
L 104.943543 71.143323 
L 105.179667 70.79028 
L 105.415791 65.28224 
L 105.651915 64.90025 
L 106.360287 62.710287 
L 106.596411 62.696021 
L 106.832535 62.52952 
L 107.068659 62.86977 
L 107.304783 62.028094 
L 107.540907 62.003098 
L 107.777031 62.210837 
L 108.013155 60.713536 
L 108.24928 60.854932 
L 108.485404 60.376309 
L 108.721528 60.320204 
L 109.193776 60.578459 
L 109.4299 58.19283 
L 109.666024 58.147761 
L 109.902148 58.241599 
L 110.138272 57.53823 
L 110.846644 57.687355 
L 111.082768 53.405362 
L 111.318892 53.314219 
L 111.555016 51.92201 
L 111.79114 52.178606 
L 112.027264 51.939332 
L 112.263388 49.863139 
L 112.735636 48.839637 
L 113.444008 48.858902 
L 114.15238 48.695512 
L 114.388504 48.11089 
L 114.624628 48.109646 
L 114.860752 47.980944 
L 115.096876 48.266946 
L 115.333 48.278461 
L 115.569125 47.45915 
L 115.805249 47.678678 
L 116.041373 46.685422 
L 116.277497 46.762877 
L 116.513621 46.678327 
L 116.749745 46.720242 
L 116.985869 44.782433 
L 117.221993 44.389396 
L 117.458117 44.300414 
L 117.694241 43.382801 
L 117.930365 43.383652 
L 118.166489 43.567105 
L 118.402613 42.223905 
L 118.638737 42.39963 
L 118.874861 42.423098 
L 119.110985 41.680008 
L 119.583233 39.879404 
L 119.819357 39.733609 
L 120.291605 39.88162 
L 120.527729 39.74423 
L 120.763853 40.083312 
L 120.999977 39.915632 
L 121.236101 40.010573 
L 121.472225 39.584659 
L 121.944473 33.933957 
L 122.416721 33.697762 
L 123.125094 34.153245 
L 123.361218 33.760808 
L 123.597342 33.99815 
L 124.06959 33.880527 
L 124.305714 33.703372 
L 124.541838 32.450049 
L 125.014086 32.402207 
L 125.486334 32.208341 
L 125.722458 31.539159 
L 125.958582 31.535262 
L 126.194706 31.807445 
L 126.43083 30.695103 
L 126.666954 30.636324 
L 126.903078 29.660751 
L 128.083698 29.657989 
L 128.319822 29.615605 
L 128.555946 29.69187 
L 129.028194 30.201176 
L 129.264318 30.279286 
L 130.208814 30.003927 
L 130.681063 30.307655 
L 130.917187 30.132956 
L 131.153311 29.780218 
L 131.625559 29.872387 
L 131.861683 27.975466 
L 132.097807 27.92506 
L 133.514551 25.889952 
L 133.750675 24.354152 
L 133.986799 24.771639 
L 134.222923 24.46396 
L 134.931295 24.93288 
L 135.403543 24.781376 
L 136.111915 24.902142 
L 136.348039 24.753127 
L 136.584163 24.910569 
L 137.056411 24.684164 
L 137.292535 25.113942 
L 137.528659 24.753105 
L 139.181528 23.828495 
L 139.417652 23.962927 
L 139.653776 23.550418 
L 139.8899 23.522671 
L 140.362148 22.327318 
L 140.598272 22.14595 
L 140.834396 21.630379 
L 141.07052 20.423674 
L 141.306644 20.352681 
L 141.542768 19.924345 
L 142.015016 17.22727 
L 142.25114 17.014793 
L 142.487264 16.955174 
L 142.723388 16.763633 
L 143.195636 16.591215 
L 143.904008 16.19879 
L 144.140132 15.931868 
L 145.556877 17.282785 
L 145.793001 17.198868 
L 146.501373 17.387353 
L 146.737497 17.270145 
L 146.973621 17.379865 
L 147.209745 17.3612 
L 147.445869 16.17447 
L 147.681993 15.883841 
L 147.918117 16.022595 
L 148.154241 14.725906 
L 148.390365 15.095082 
L 148.626489 14.79417 
L 148.862613 14.948249 
L 149.098737 14.820432 
L 149.334861 14.832373 
L 149.570985 12.771855 
L 150.043233 12.850707 
L 150.515481 12.259798 
L 150.987729 13.360711 
L 151.223853 13.497938 
L 151.459977 13.99849 
L 151.696101 11.919525 
L 152.640598 12.551432 
L 152.876722 12.063126 
L 153.34897 11.781818 
L 153.821218 12.290797 
L 154.293466 12.225284 
L 154.765714 12.500326 
L 155.001838 13.342439 
L 155.237962 13.748181 
L 155.474086 13.809678 
L 155.71021 14.120872 
L 155.946334 13.910208 
L 156.182458 14.319006 
L 156.654706 14.498584 
L 156.89083 14.147069 
L 157.126954 14.34732 
L 157.363078 14.343762 
L 157.599202 14.514586 
L 157.835326 14.221817 
L 158.543698 14.613325 
L 158.779822 14.911269 
L 159.25207 14.951415 
L 159.488194 15.223052 
L 159.724318 16.33964 
L 159.960443 16.19414 
L 160.196567 16.488874 
L 160.904939 18.146182 
L 161.141063 18.190302 
L 161.377187 18.64787 
L 161.613311 18.544087 
L 162.085559 19.000717 
L 162.321683 18.961378 
L 162.557807 19.088497 
L 162.793931 19.77629 
L 163.030055 19.471688 
L 163.266179 19.532006 
L 163.738427 19.02294 
L 164.446799 18.749032 
L 164.682923 19.206207 
L 164.919047 19.193982 
L 165.391295 19.718963 
L 165.627419 19.455403 
L 166.571915 19.483128 
L 167.044163 20.042404 
L 167.280288 19.675804 
L 167.516412 19.654061 
L 167.752536 19.288901 
L 168.224784 18.142624 
L 168.460908 17.909277 
L 168.697032 18.001948 
L 169.405404 17.329196 
L 169.877652 17.550209 
L 170.3499 19.107381 
L 170.586024 19.026193 
L 170.822148 18.703319 
L 171.058272 18.704738 
L 171.294396 18.881282 
L 171.766644 19.638124 
L 172.475016 20.655143 
L 172.71114 20.813502 
L 172.947264 20.242874 
L 173.183388 20.363422 
L 173.655636 20.348512 
L 173.89176 20.694809 
L 174.127884 19.831892 
L 174.364008 20.013762 
L 174.600133 19.804975 
L 174.836257 19.84486 
L 175.072381 20.384379 
L 175.308505 20.322162 
L 175.544629 20.095016 
L 176.489125 19.9646 
L 176.725249 20.782808 
L 176.961373 20.491698 
L 177.197497 20.652655 
L 177.433621 20.548065 
L 177.669745 20.779905 
L 177.905869 21.275807 
L 178.141993 21.126421 
L 178.614241 21.355445 
L 178.850365 21.268145 
L 179.086489 21.360859 
L 179.322613 21.262905 
L 179.558737 22.15966 
L 180.030985 22.104516 
L 180.267109 21.651052 
L 180.739357 22.149989 
L 180.975481 22.805254 
L 181.211605 21.937927 
L 181.447729 21.992416 
L 181.919978 21.468462 
L 182.156102 20.925187 
L 182.62835 21.113519 
L 182.864474 21.016504 
L 183.100598 21.367714 
L 183.336722 21.486821 
L 183.572846 21.76038 
L 183.80897 21.813995 
L 184.281218 21.527448 
L 184.517342 20.796387 
L 184.753466 20.471199 
L 184.98959 20.390667 
L 185.225714 19.7423 
L 185.461838 19.681305 
L 185.934086 20.444326 
L 186.17021 20.472444 
L 186.642458 20.653724 
L 187.114706 20.715461 
L 187.35083 20.840768 
L 187.823078 20.682082 
L 188.295326 20.926781 
L 188.53145 21.440955 
L 188.767574 21.192808 
L 189.003698 21.16255 
L 189.239823 21.499701 
L 189.475947 21.423818 
L 189.712071 21.069443 
L 189.948195 20.935884 
L 190.184319 21.025629 
L 190.420443 20.871746 
L 190.656567 20.927938 
L 191.128815 20.789532 
L 191.364939 20.970922 
L 191.601063 20.945009 
L 191.837187 20.734978 
L 192.545559 22.395277 
L 192.781683 22.490283 
L 193.017807 21.651052 
L 193.253931 21.837092 
L 193.726179 21.579994 
L 193.962303 21.515245 
L 194.434551 21.763763 
L 194.906799 21.432834 
L 195.142923 21.234395 
L 195.379047 21.399477 
L 195.615171 21.11603 
L 197.26804 20.983453 
L 197.740288 20.608513 
L 198.44866 20.578322 
L 198.684784 20.679506 
L 198.920908 20.431642 
L 199.157032 20.493685 
L 199.393156 20.255099 
L 199.62928 20.311815 
L 199.865404 20.573344 
L 200.101528 20.229579 
L 200.337652 20.082572 
L 200.8099 20.360366 
L 201.046024 20.02972 
L 201.282148 20.179958 
L 201.518272 19.896947 
L 201.754396 20.267957 
L 202.226644 20.093902 
L 202.462768 20.087593 
L 202.935016 19.37415 
L 203.17114 19.471295 
L 203.643388 19.02139 
L 204.115637 18.851505 
L 204.824009 19.438179 
L 205.296257 19.654694 
L 205.296257 19.654694 
" clip-path="url(#p0fa611ce63)" style="fill: none; stroke: #ff0000; stroke-width: 1.5; stroke-linecap: square"/>
   </g>
   <g id="line2d_28">
    <path d="M 16.633155 203.858104 
L 17.813775 203.862671 
L 18.049899 204.218182 
L 18.758271 204.150798 
L 19.230519 204.096421 
L 21.59176 204.092735 
L 23.008504 203.995554 
L 23.480752 204.074171 
L 24.189124 204.050272 
L 29.147729 204.028581 
L 29.383853 204.165332 
L 31.036721 204.083868 
L 31.508969 203.983645 
L 31.981217 204.098845 
L 32.453465 204.0551 
L 32.925713 204.105264 
L 33.634085 204.123456 
L 34.814706 204.082729 
L 35.05083 201.361012 
L 36.467574 201.528546 
L 36.703698 201.408803 
L 36.939822 198.884712 
L 37.41207 199.036478 
L 37.884318 198.989949 
L 38.120442 199.015028 
L 38.356566 198.90766 
L 38.59269 199.038579 
L 39.064938 199.011618 
L 39.537186 199.020424 
L 40.481682 199.128802 
L 40.717806 199.193497 
L 41.190054 199.067004 
L 41.662302 199.088396 
L 41.898427 199.07249 
L 42.134551 199.260394 
L 42.606799 199.079462 
L 44.968039 199.160152 
L 45.204163 197.472046 
L 45.676411 197.414847 
L 45.912535 197.654675 
L 46.148659 197.461007 
L 47.093155 197.374476 
L 47.329279 195.606218 
L 47.565403 195.672263 
L 48.037651 195.654679 
L 48.509899 195.613247 
L 49.218272 195.531005 
L 49.69052 195.566853 
L 49.926644 195.630852 
L 50.162768 193.8386 
L 50.398892 193.962208 
L 50.87114 193.882475 
L 51.579512 193.952169 
L 52.05176 193.950758 
L 52.287884 192.412417 
L 52.524008 192.448965 
L 52.760132 192.26628 
L 53.23238 192.426837 
L 53.704628 192.504099 
L 53.940752 191.168971 
L 55.121372 191.158254 
L 55.357496 191.302994 
L 55.829744 191.097004 
L 56.538116 191.187881 
L 56.774241 191.146741 
L 57.246489 191.224647 
L 58.663233 191.241067 
L 58.899357 191.107194 
L 60.552225 191.119874 
L 60.788349 190.303808 
L 63.857961 190.236589 
L 64.33021 190.387778 
L 64.802458 190.258469 
L 65.038582 189.251815 
L 65.274706 189.208244 
L 65.51083 189.283093 
L 66.219202 189.209599 
L 66.927574 189.231286 
L 67.399822 189.08598 
L 68.344318 189.246863 
L 68.580442 188.09886 
L 68.816566 187.94719 
L 69.288814 188.018914 
L 69.524938 186.975696 
L 69.997186 187.04011 
L 70.469434 187.004714 
L 70.705558 187.01907 
L 70.941682 186.004049 
L 72.358427 185.98 
L 73.066799 186.000515 
L 73.302923 184.911928 
L 73.539047 184.847154 
L 74.247419 185.038692 
L 74.483543 184.081401 
L 74.955791 184.059814 
L 75.191915 183.138833 
L 75.428039 183.107571 
L 75.900287 181.283467 
L 76.136411 180.353535 
L 76.608659 180.165659 
L 76.844783 180.297447 
L 77.553155 178.438474 
L 78.261527 178.441388 
L 78.733776 178.515082 
L 78.9699 177.987059 
L 79.914396 177.828444 
L 80.15052 177.88653 
L 80.386644 177.802635 
L 80.858892 177.914151 
L 81.095016 177.848067 
L 82.039512 178.030543 
L 82.275636 177.429262 
L 82.984008 177.333696 
L 83.69238 177.37704 
L 83.928504 176.769491 
L 84.164628 176.758764 
L 84.636876 175.489507 
L 85.109124 175.381484 
L 85.345248 174.204715 
L 86.053621 174.11 
L 86.289745 174.227135 
L 86.525869 173.850763 
L 86.998117 173.703145 
L 87.234241 173.798509 
L 87.470365 173.260588 
L 87.706489 173.311764 
L 87.942613 172.504106 
L 88.178737 172.591463 
L 88.650985 171.463832 
L 89.123233 171.420643 
L 89.359357 171.464844 
L 89.595481 171.38281 
L 90.303853 171.440244 
L 90.539977 171.378188 
L 90.776101 171.458707 
L 91.012225 170.659417 
L 91.956721 170.599299 
L 92.192845 170.122242 
L 92.428969 170.253702 
L 93.373465 170.093936 
L 93.60959 169.668188 
L 93.845714 169.76489 
L 94.317962 169.720754 
L 95.026334 169.647051 
L 95.262458 169.148054 
L 95.97083 169.096542 
L 96.679202 167.50171 
L 96.915326 167.538544 
L 97.387574 167.386467 
L 97.623698 166.346327 
L 98.095946 165.483404 
L 98.33207 165.523927 
L 98.568194 164.772569 
L 98.804318 164.869376 
L 99.040442 164.658766 
L 99.276566 164.048641 
L 99.51269 163.926718 
L 99.748814 163.955567 
L 100.221062 162.744414 
L 101.165559 160.35086 
L 101.873931 160.353087 
L 102.110055 159.936167 
L 102.346179 159.999531 
L 102.582303 159.707487 
L 103.054551 159.511367 
L 103.290675 159.273163 
L 103.762923 159.211339 
L 104.235171 159.338377 
L 104.707419 158.295237 
L 105.651915 156.20736 
L 107.068659 155.386112 
L 107.304783 154.870895 
L 107.777031 154.937914 
L 108.013155 154.604044 
L 108.24928 154.646553 
L 108.485404 154.352682 
L 109.193776 154.515461 
L 109.666024 153.804844 
L 109.902148 153.824186 
L 110.138272 153.646671 
L 110.61052 153.625627 
L 111.318892 153.236508 
L 111.555016 152.650697 
L 112.027264 152.782744 
L 112.499512 152.482897 
L 112.97176 152.280489 
L 113.444008 152.349779 
L 113.680132 152.277962 
L 114.624628 151.575128 
L 114.860752 151.420028 
L 115.096876 151.520514 
L 115.333 151.44701 
L 115.569125 151.244145 
L 115.805249 151.314079 
L 116.277497 151.082441 
L 116.749745 151.111508 
L 117.694241 150.697345 
L 118.166489 150.732928 
L 118.402613 150.45907 
L 118.638737 150.492083 
L 119.347109 149.941321 
L 120.527729 149.92003 
L 121.236101 149.791045 
L 121.944473 149.384975 
L 122.180597 149.42189 
L 122.416721 149.299443 
L 122.88897 149.391551 
L 123.361218 149.087545 
L 123.597342 149.064088 
L 124.541838 148.395441 
L 125.014086 148.418745 
L 125.486334 148.332421 
L 125.958582 148.317369 
L 126.666954 148.209657 
L 127.375326 147.977877 
L 128.083698 148.042299 
L 128.319822 148.070433 
L 128.555946 147.912658 
L 129.028194 148.055135 
L 129.500442 148.033785 
L 129.736566 148.11894 
L 130.208814 147.993917 
L 130.444939 148.079367 
L 130.917187 148.083237 
L 131.389435 148.351987 
L 133.042303 148.412976 
L 133.986799 148.842246 
L 134.695171 148.874539 
L 135.403543 149.037749 
L 135.875791 148.978758 
L 136.348039 149.236696 
L 136.820287 149.297205 
L 138.237032 149.377498 
L 138.70928 149.224078 
L 138.945404 149.18122 
L 140.834396 150.012352 
L 141.07052 150.447794 
L 141.306644 150.40123 
L 141.778892 150.736667 
L 142.015016 151.035838 
L 142.25114 151.053111 
L 142.487264 151.251906 
L 142.959512 151.180094 
L 143.43176 151.386343 
L 143.904008 151.19442 
L 144.376256 151.456556 
L 144.848504 152.339797 
L 146.029125 153.129184 
L 146.265249 153.076283 
L 146.501373 153.213182 
L 146.737497 153.635598 
L 147.209745 153.800402 
L 147.681993 154.573541 
L 147.918117 154.545374 
L 149.334861 156.118122 
L 150.043233 156.702962 
L 150.279357 156.661517 
L 150.987729 157.183703 
L 151.223853 157.093619 
L 151.459977 157.751832 
L 151.932225 158.213973 
L 152.168349 158.61965 
L 152.640598 158.609848 
L 152.876722 159.090218 
L 153.34897 159.128061 
L 153.585094 159.306231 
L 154.057342 159.326959 
L 154.293466 159.836948 
L 154.52959 159.771751 
L 154.765714 160.090471 
L 155.001838 161.535489 
L 155.237962 161.953642 
L 155.474086 161.880695 
L 155.946334 162.577929 
L 156.182458 163.337157 
L 157.126954 163.436049 
L 157.835326 163.313443 
L 158.07145 163.721947 
L 158.779822 163.78841 
L 159.488194 163.713766 
L 159.724318 164.542153 
L 160.196567 164.49728 
L 160.668815 165.284495 
L 160.904939 166.200428 
L 161.141063 166.19503 
L 161.377187 166.62323 
L 162.085559 166.712397 
L 162.321683 167.210941 
L 162.557807 167.285632 
L 162.793931 167.729091 
L 163.266179 167.626114 
L 163.738427 167.670231 
L 163.974551 167.595775 
L 164.446799 167.684148 
L 164.919047 168.593043 
L 165.155171 168.575371 
L 165.391295 169.089177 
L 165.863543 169.0611 
L 166.099667 169.553319 
L 166.808039 169.381993 
L 167.044163 169.897038 
L 167.98866 170.01876 
L 168.224784 170.55262 
L 168.460908 170.522436 
L 168.697032 171.033216 
L 168.933156 171.106804 
L 169.641528 171.02855 
L 169.877652 171.073483 
L 170.113776 172.243997 
L 170.3499 172.826845 
L 170.586024 172.822105 
L 170.822148 173.483625 
L 171.766644 173.390714 
L 172.238892 173.348625 
L 172.947264 175.131459 
L 173.89176 175.19912 
L 174.127884 176.528245 
L 174.600133 176.443297 
L 174.836257 176.515288 
L 175.072381 177.1585 
L 176.489125 177.157281 
L 176.961373 179.410074 
L 177.197497 179.362868 
L 177.433621 180.137361 
L 177.669745 180.173005 
L 177.905869 180.961365 
L 178.850365 180.990239 
L 179.558737 183.574087 
L 180.739357 183.614343 
L 181.211605 185.482168 
L 182.392226 185.433849 
L 183.100598 185.334984 
L 183.572846 185.356681 
L 184.281218 185.250364 
L 184.517342 186.331993 
L 185.225714 186.325168 
L 185.934086 186.357785 
L 186.878582 186.513898 
L 187.114706 187.605504 
L 188.295326 187.625375 
L 188.53145 188.753558 
L 189.003698 188.731165 
L 189.239823 189.948183 
L 189.948195 189.832424 
L 190.184319 192.511961 
L 190.892691 192.46814 
L 191.128815 192.516286 
L 191.364939 193.995988 
L 191.837187 194.034134 
L 192.781683 194.241503 
L 193.017807 195.854368 
L 193.490055 195.878004 
L 195.142923 195.669485 
L 195.615171 195.697936 
L 196.323543 195.551878 
L 197.031916 195.548022 
L 197.26804 197.379322 
L 199.157032 197.478241 
L 199.865404 197.350955 
L 201.518272 197.488508 
L 201.754396 199.599053 
L 201.99052 199.554432 
L 202.226644 199.637322 
L 202.698892 199.589088 
L 203.407264 199.730187 
L 203.643388 202.374737 
L 203.879512 202.198427 
L 204.115637 202.21458 
L 204.587885 202.487181 
L 204.824009 202.486732 
L 205.296257 202.627959 
L 205.296257 202.627959 
" clip-path="url(#p0fa611ce63)" style="fill: none; stroke: #ffc0cb; stroke-width: 1.5; stroke-linecap: square"/>
   </g>
   <g id="patch_3">
    <path d="M 7.2 213.84 
L 7.2 2.16 
" style="fill: none; stroke: #000000; stroke-width: 0.8; stroke-linejoin: miter; stroke-linecap: square"/>
   </g>
   <g id="patch_4">
    <path d="M 214.729412 213.84 
L 214.729412 2.16 
" style="fill: none; stroke: #000000; stroke-width: 0.8; stroke-linejoin: miter; stroke-linecap: square"/>
   </g>
   <g id="patch_5">
    <path d="M 7.2 213.84 
L 214.729412 213.84 
" style="fill: none; stroke: #000000; stroke-width: 0.8; stroke-linejoin: miter; stroke-linecap: square"/>
   </g>
   <g id="patch_6">
    <path d="M 7.2 2.16 
L 214.729412 2.16 
" style="fill: none; stroke: #000000; stroke-width: 0.8; stroke-linejoin: miter; stroke-linecap: square"/>
   </g>
   <g id="legend_1">
    <g id="patch_7">
     <path d="M 14.2 39.51625 
L 101.664063 39.51625 
Q 103.664063 39.51625 103.664063 37.51625 
L 103.664063 9.16 
Q 103.664063 7.16 101.664063 7.16 
L 14.2 7.16 
Q 12.2 7.16 12.2 9.16 
L 12.2 37.51625 
Q 12.2 39.51625 14.2 39.51625 
z
" style="fill: #ffffff; opacity: 0.8; stroke: #cccccc; stroke-linejoin: miter"/>
    </g>
    <g id="line2d_29">
     <path d="M 16.2 15.258437 
L 26.2 15.258437 
L 36.2 15.258437 
" style="fill: none; stroke: #ff0000; stroke-width: 1.5; stroke-linecap: square"/>
    </g>
    <g id="text_14">
     <!-- original Xs -->
     <g transform="translate(44.2 18.758437) scale(0.1 -0.1)">
      <defs>
       <path id="DejaVuSans-6f" d="M 1959 3097 
Q 1497 3097 1228 2736 
Q 959 2375 959 1747 
Q 959 1119 1226 758 
Q 1494 397 1959 397 
Q 2419 397 2687 759 
Q 2956 1122 2956 1747 
Q 2956 2369 2687 2733 
Q 2419 3097 1959 3097 
z
M 1959 3584 
Q 2709 3584 3137 3096 
Q 3566 2609 3566 1747 
Q 3566 888 3137 398 
Q 2709 -91 1959 -91 
Q 1206 -91 779 398 
Q 353 888 353 1747 
Q 353 2609 779 3096 
Q 1206 3584 1959 3584 
z
" transform="scale(0.015625)"/>
       <path id="DejaVuSans-72" d="M 2631 2963 
Q 2534 3019 2420 3045 
Q 2306 3072 2169 3072 
Q 1681 3072 1420 2755 
Q 1159 2438 1159 1844 
L 1159 0 
L 581 0 
L 581 3500 
L 1159 3500 
L 1159 2956 
Q 1341 3275 1631 3429 
Q 1922 3584 2338 3584 
Q 2397 3584 2469 3576 
Q 2541 3569 2628 3553 
L 2631 2963 
z
" transform="scale(0.015625)"/>
       <path id="DejaVuSans-69" d="M 603 3500 
L 1178 3500 
L 1178 0 
L 603 0 
L 603 3500 
z
M 603 4863 
L 1178 4863 
L 1178 4134 
L 603 4134 
L 603 4863 
z
" transform="scale(0.015625)"/>
       <path id="DejaVuSans-67" d="M 2906 1791 
Q 2906 2416 2648 2759 
Q 2391 3103 1925 3103 
Q 1463 3103 1205 2759 
Q 947 2416 947 1791 
Q 947 1169 1205 825 
Q 1463 481 1925 481 
Q 2391 481 2648 825 
Q 2906 1169 2906 1791 
z
M 3481 434 
Q 3481 -459 3084 -895 
Q 2688 -1331 1869 -1331 
Q 1566 -1331 1297 -1286 
Q 1028 -1241 775 -1147 
L 775 -588 
Q 1028 -725 1275 -790 
Q 1522 -856 1778 -856 
Q 2344 -856 2625 -561 
Q 2906 -266 2906 331 
L 2906 616 
Q 2728 306 2450 153 
Q 2172 0 1784 0 
Q 1141 0 747 490 
Q 353 981 353 1791 
Q 353 2603 747 3093 
Q 1141 3584 1784 3584 
Q 2172 3584 2450 3431 
Q 2728 3278 2906 2969 
L 2906 3500 
L 3481 3500 
L 3481 434 
z
" transform="scale(0.015625)"/>
       <path id="DejaVuSans-6e" d="M 3513 2113 
L 3513 0 
L 2938 0 
L 2938 2094 
Q 2938 2591 2744 2837 
Q 2550 3084 2163 3084 
Q 1697 3084 1428 2787 
Q 1159 2491 1159 1978 
L 1159 0 
L 581 0 
L 581 3500 
L 1159 3500 
L 1159 2956 
Q 1366 3272 1645 3428 
Q 1925 3584 2291 3584 
Q 2894 3584 3203 3211 
Q 3513 2838 3513 2113 
z
" transform="scale(0.015625)"/>
       <path id="DejaVuSans-61" d="M 2194 1759 
Q 1497 1759 1228 1600 
Q 959 1441 959 1056 
Q 959 750 1161 570 
Q 1363 391 1709 391 
Q 2188 391 2477 730 
Q 2766 1069 2766 1631 
L 2766 1759 
L 2194 1759 
z
M 3341 1997 
L 3341 0 
L 2766 0 
L 2766 531 
Q 2569 213 2275 61 
Q 1981 -91 1556 -91 
Q 1019 -91 701 211 
Q 384 513 384 1019 
Q 384 1609 779 1909 
Q 1175 2209 1959 2209 
L 2766 2209 
L 2766 2266 
Q 2766 2663 2505 2880 
Q 2244 3097 1772 3097 
Q 1472 3097 1187 3025 
Q 903 2953 641 2809 
L 641 3341 
Q 956 3463 1253 3523 
Q 1550 3584 1831 3584 
Q 2591 3584 2966 3190 
Q 3341 2797 3341 1997 
z
" transform="scale(0.015625)"/>
       <path id="DejaVuSans-6c" d="M 603 4863 
L 1178 4863 
L 1178 0 
L 603 0 
L 603 4863 
z
" transform="scale(0.015625)"/>
       <path id="DejaVuSans-20" transform="scale(0.015625)"/>
       <path id="DejaVuSans-58" d="M 403 4666 
L 1081 4666 
L 2241 2931 
L 3406 4666 
L 4084 4666 
L 2584 2425 
L 4184 0 
L 3506 0 
L 2194 1984 
L 872 0 
L 191 0 
L 1856 2491 
L 403 4666 
z
" transform="scale(0.015625)"/>
       <path id="DejaVuSans-73" d="M 2834 3397 
L 2834 2853 
Q 2591 2978 2328 3040 
Q 2066 3103 1784 3103 
Q 1356 3103 1142 2972 
Q 928 2841 928 2578 
Q 928 2378 1081 2264 
Q 1234 2150 1697 2047 
L 1894 2003 
Q 2506 1872 2764 1633 
Q 3022 1394 3022 966 
Q 3022 478 2636 193 
Q 2250 -91 1575 -91 
Q 1294 -91 989 -36 
Q 684 19 347 128 
L 347 722 
Q 666 556 975 473 
Q 1284 391 1588 391 
Q 1994 391 2212 530 
Q 2431 669 2431 922 
Q 2431 1156 2273 1281 
Q 2116 1406 1581 1522 
L 1381 1569 
Q 847 1681 609 1914 
Q 372 2147 372 2553 
Q 372 3047 722 3315 
Q 1072 3584 1716 3584 
Q 2034 3584 2315 3537 
Q 2597 3491 2834 3397 
z
" transform="scale(0.015625)"/>
      </defs>
      <use xlink:href="#DejaVuSans-6f"/>
      <use xlink:href="#DejaVuSans-72" x="61.181641"/>
      <use xlink:href="#DejaVuSans-69" x="102.294922"/>
      <use xlink:href="#DejaVuSans-67" x="130.078125"/>
      <use xlink:href="#DejaVuSans-69" x="193.554688"/>
      <use xlink:href="#DejaVuSans-6e" x="221.337891"/>
      <use xlink:href="#DejaVuSans-61" x="284.716797"/>
      <use xlink:href="#DejaVuSans-6c" x="345.996094"/>
      <use xlink:href="#DejaVuSans-20" x="373.779297"/>
      <use xlink:href="#DejaVuSans-58" x="405.566406"/>
      <use xlink:href="#DejaVuSans-73" x="474.072266"/>
     </g>
    </g>
    <g id="line2d_30">
     <path d="M 16.2 29.936562 
L 26.2 29.936562 
L 36.2 29.936562 
" style="fill: none; stroke: #ffc0cb; stroke-width: 1.5; stroke-linecap: square"/>
    </g>
    <g id="text_15">
     <!-- rebased Xs -->
     <g transform="translate(44.2 33.436562) scale(0.1 -0.1)">
      <defs>
       <path id="DejaVuSans-65" d="M 3597 1894 
L 3597 1613 
L 953 1613 
Q 991 1019 1311 708 
Q 1631 397 2203 397 
Q 2534 397 2845 478 
Q 3156 559 3463 722 
L 3463 178 
Q 3153 47 2828 -22 
Q 2503 -91 2169 -91 
Q 1331 -91 842 396 
Q 353 884 353 1716 
Q 353 2575 817 3079 
Q 1281 3584 2069 3584 
Q 2775 3584 3186 3129 
Q 3597 2675 3597 1894 
z
M 3022 2063 
Q 3016 2534 2758 2815 
Q 2500 3097 2075 3097 
Q 1594 3097 1305 2825 
Q 1016 2553 972 2059 
L 3022 2063 
z
" transform="scale(0.015625)"/>
       <path id="DejaVuSans-62" d="M 3116 1747 
Q 3116 2381 2855 2742 
Q 2594 3103 2138 3103 
Q 1681 3103 1420 2742 
Q 1159 2381 1159 1747 
Q 1159 1113 1420 752 
Q 1681 391 2138 391 
Q 2594 391 2855 752 
Q 3116 1113 3116 1747 
z
M 1159 2969 
Q 1341 3281 1617 3432 
Q 1894 3584 2278 3584 
Q 2916 3584 3314 3078 
Q 3713 2572 3713 1747 
Q 3713 922 3314 415 
Q 2916 -91 2278 -91 
Q 1894 -91 1617 61 
Q 1341 213 1159 525 
L 1159 0 
L 581 0 
L 581 4863 
L 1159 4863 
L 1159 2969 
z
" transform="scale(0.015625)"/>
       <path id="DejaVuSans-64" d="M 2906 2969 
L 2906 4863 
L 3481 4863 
L 3481 0 
L 2906 0 
L 2906 525 
Q 2725 213 2448 61 
Q 2172 -91 1784 -91 
Q 1150 -91 751 415 
Q 353 922 353 1747 
Q 353 2572 751 3078 
Q 1150 3584 1784 3584 
Q 2172 3584 2448 3432 
Q 2725 3281 2906 2969 
z
M 947 1747 
Q 947 1113 1208 752 
Q 1469 391 1925 391 
Q 2381 391 2643 752 
Q 2906 1113 2906 1747 
Q 2906 2381 2643 2742 
Q 2381 3103 1925 3103 
Q 1469 3103 1208 2742 
Q 947 2381 947 1747 
z
" transform="scale(0.015625)"/>
      </defs>
      <use xlink:href="#DejaVuSans-72"/>
      <use xlink:href="#DejaVuSans-65" x="38.863281"/>
      <use xlink:href="#DejaVuSans-62" x="100.386719"/>
      <use xlink:href="#DejaVuSans-61" x="163.863281"/>
      <use xlink:href="#DejaVuSans-73" x="225.142578"/>
      <use xlink:href="#DejaVuSans-65" x="277.242188"/>
      <use xlink:href="#DejaVuSans-64" x="338.765625"/>
      <use xlink:href="#DejaVuSans-20" x="402.242188"/>
      <use xlink:href="#DejaVuSans-58" x="434.029297"/>
      <use xlink:href="#DejaVuSans-73" x="502.535156"/>
     </g>
    </g>
   </g>
  </g>
  <g id="axes_2">
   <g id="patch_8">
    <path d="M 256.235294 213.84 
L 463.764706 213.84 
L 463.764706 2.16 
L 256.235294 2.16 
z
" style="fill: #ffffff"/>
   </g>
   <g id="matplotlib.axis_3">
    <g id="xtick_6">
     <g id="line2d_31">
      <path d="M 265.668449 213.84 
L 265.668449 2.16 
" clip-path="url(#p82dc9d2807)" style="fill: none; stroke: #b0b0b0; stroke-width: 0.8; stroke-linecap: square"/>
     </g>
     <g id="line2d_32"/>
     <g id="text_16">
      <!-- 0 -->
      <g transform="translate(262.487199 224.938437) scale(0.1 -0.1)">
       <use xlink:href="#DejaVuSans-30"/>
      </g>
     </g>
    </g>
    <g id="xtick_7">
     <g id="line2d_33">
      <path d="M 312.893256 213.84 
L 312.893256 2.16 
" clip-path="url(#p82dc9d2807)" style="fill: none; stroke: #b0b0b0; stroke-width: 0.8; stroke-linecap: square"/>
     </g>
     <g id="line2d_34"/>
     <g id="text_17">
      <!-- 200 -->
      <g transform="translate(303.349506 224.938437) scale(0.1 -0.1)">
       <use xlink:href="#DejaVuSans-32"/>
       <use xlink:href="#DejaVuSans-30" x="63.623047"/>
       <use xlink:href="#DejaVuSans-30" x="127.246094"/>
      </g>
     </g>
    </g>
    <g id="xtick_8">
     <g id="line2d_35">
      <path d="M 360.118062 213.84 
L 360.118062 2.16 
" clip-path="url(#p82dc9d2807)" style="fill: none; stroke: #b0b0b0; stroke-width: 0.8; stroke-linecap: square"/>
     </g>
     <g id="line2d_36"/>
     <g id="text_18">
      <!-- 400 -->
      <g transform="translate(350.574312 224.938437) scale(0.1 -0.1)">
       <use xlink:href="#DejaVuSans-34"/>
       <use xlink:href="#DejaVuSans-30" x="63.623047"/>
       <use xlink:href="#DejaVuSans-30" x="127.246094"/>
      </g>
     </g>
    </g>
    <g id="xtick_9">
     <g id="line2d_37">
      <path d="M 407.342868 213.84 
L 407.342868 2.16 
" clip-path="url(#p82dc9d2807)" style="fill: none; stroke: #b0b0b0; stroke-width: 0.8; stroke-linecap: square"/>
     </g>
     <g id="line2d_38"/>
     <g id="text_19">
      <!-- 600 -->
      <g transform="translate(397.799118 224.938437) scale(0.1 -0.1)">
       <use xlink:href="#DejaVuSans-36"/>
       <use xlink:href="#DejaVuSans-30" x="63.623047"/>
       <use xlink:href="#DejaVuSans-30" x="127.246094"/>
      </g>
     </g>
    </g>
    <g id="xtick_10">
     <g id="line2d_39">
      <path d="M 454.567675 213.84 
L 454.567675 2.16 
" clip-path="url(#p82dc9d2807)" style="fill: none; stroke: #b0b0b0; stroke-width: 0.8; stroke-linecap: square"/>
     </g>
     <g id="line2d_40"/>
     <g id="text_20">
      <!-- 800 -->
      <g transform="translate(445.023925 224.938437) scale(0.1 -0.1)">
       <use xlink:href="#DejaVuSans-38"/>
       <use xlink:href="#DejaVuSans-30" x="63.623047"/>
       <use xlink:href="#DejaVuSans-30" x="127.246094"/>
      </g>
     </g>
    </g>
   </g>
   <g id="matplotlib.axis_4">
    <g id="ytick_9">
     <g id="line2d_41">
      <path d="M 256.235294 207.393422 
L 463.764706 207.393422 
" clip-path="url(#p82dc9d2807)" style="fill: none; stroke: #b0b0b0; stroke-width: 0.8; stroke-linecap: square"/>
     </g>
     <g id="line2d_42"/>
     <g id="text_21">
      <!-- 0.00 -->
      <g transform="translate(230.469669 211.19264) scale(0.1 -0.1)">
       <use xlink:href="#DejaVuSans-30"/>
       <use xlink:href="#DejaVuSans-2e" x="63.623047"/>
       <use xlink:href="#DejaVuSans-30" x="95.410156"/>
       <use xlink:href="#DejaVuSans-30" x="159.033203"/>
      </g>
     </g>
    </g>
    <g id="ytick_10">
     <g id="line2d_43">
      <path d="M 256.235294 167.105014 
L 463.764706 167.105014 
" clip-path="url(#p82dc9d2807)" style="fill: none; stroke: #b0b0b0; stroke-width: 0.8; stroke-linecap: square"/>
     </g>
     <g id="line2d_44"/>
     <g id="text_22">
      <!-- 0.02 -->
      <g transform="translate(230.469669 170.904233) scale(0.1 -0.1)">
       <use xlink:href="#DejaVuSans-30"/>
       <use xlink:href="#DejaVuSans-2e" x="63.623047"/>
       <use xlink:href="#DejaVuSans-30" x="95.410156"/>
       <use xlink:href="#DejaVuSans-32" x="159.033203"/>
      </g>
     </g>
    </g>
    <g id="ytick_11">
     <g id="line2d_45">
      <path d="M 256.235294 126.816607 
L 463.764706 126.816607 
" clip-path="url(#p82dc9d2807)" style="fill: none; stroke: #b0b0b0; stroke-width: 0.8; stroke-linecap: square"/>
     </g>
     <g id="line2d_46"/>
     <g id="text_23">
      <!-- 0.04 -->
      <g transform="translate(230.469669 130.615826) scale(0.1 -0.1)">
       <use xlink:href="#DejaVuSans-30"/>
       <use xlink:href="#DejaVuSans-2e" x="63.623047"/>
       <use xlink:href="#DejaVuSans-30" x="95.410156"/>
       <use xlink:href="#DejaVuSans-34" x="159.033203"/>
      </g>
     </g>
    </g>
    <g id="ytick_12">
     <g id="line2d_47">
      <path d="M 256.235294 86.5282 
L 463.764706 86.5282 
" clip-path="url(#p82dc9d2807)" style="fill: none; stroke: #b0b0b0; stroke-width: 0.8; stroke-linecap: square"/>
     </g>
     <g id="line2d_48"/>
     <g id="text_24">
      <!-- 0.06 -->
      <g transform="translate(230.469669 90.327418) scale(0.1 -0.1)">
       <use xlink:href="#DejaVuSans-30"/>
       <use xlink:href="#DejaVuSans-2e" x="63.623047"/>
       <use xlink:href="#DejaVuSans-30" x="95.410156"/>
       <use xlink:href="#DejaVuSans-36" x="159.033203"/>
      </g>
     </g>
    </g>
    <g id="ytick_13">
     <g id="line2d_49">
      <path d="M 256.235294 46.239792 
L 463.764706 46.239792 
" clip-path="url(#p82dc9d2807)" style="fill: none; stroke: #b0b0b0; stroke-width: 0.8; stroke-linecap: square"/>
     </g>
     <g id="line2d_50"/>
     <g id="text_25">
      <!-- 0.08 -->
      <g transform="translate(230.469669 50.039011) scale(0.1 -0.1)">
       <use xlink:href="#DejaVuSans-30"/>
       <use xlink:href="#DejaVuSans-2e" x="63.623047"/>
       <use xlink:href="#DejaVuSans-30" x="95.410156"/>
       <use xlink:href="#DejaVuSans-38" x="159.033203"/>
      </g>
     </g>
    </g>
    <g id="ytick_14">
     <g id="line2d_51">
      <path d="M 256.235294 5.951385 
L 463.764706 5.951385 
" clip-path="url(#p82dc9d2807)" style="fill: none; stroke: #b0b0b0; stroke-width: 0.8; stroke-linecap: square"/>
     </g>
     <g id="line2d_52"/>
     <g id="text_26">
      <!-- 0.10 -->
      <g transform="translate(230.469669 9.750604) scale(0.1 -0.1)">
       <use xlink:href="#DejaVuSans-30"/>
       <use xlink:href="#DejaVuSans-2e" x="63.623047"/>
       <use xlink:href="#DejaVuSans-31" x="95.410156"/>
       <use xlink:href="#DejaVuSans-30" x="159.033203"/>
      </g>
     </g>
    </g>
   </g>
   <g id="line2d_53">
    <path d="M 265.668449 203.420699 
L 275.821783 203.402062 
L 276.294031 203.302869 
L 278.183023 203.437882 
L 278.655271 203.350864 
L 279.127519 203.398828 
L 279.599767 203.29806 
L 279.835891 203.427064 
L 283.85 203.465377 
L 284.086124 185.184069 
L 285.502868 184.985713 
L 285.738992 184.775683 
L 285.975116 172.672088 
L 286.447364 172.751285 
L 287.864108 172.489475 
L 288.100232 172.642592 
L 289.7531 172.718787 
L 289.989224 172.620035 
L 290.461473 172.654663 
L 290.933721 172.65072 
L 291.169845 172.805961 
L 291.405969 172.691498 
L 291.878217 172.839145 
L 292.114341 172.763235 
L 292.586589 172.761945 
L 294.003333 172.526317 
L 294.239457 169.385737 
L 294.711705 169.368005 
L 294.947829 169.570433 
L 295.183953 169.407549 
L 295.892325 169.440237 
L 296.128449 169.36859 
L 296.364573 159.253179 
L 296.836821 159.209797 
L 298.725814 159.094028 
L 298.961938 159.055339 
L 299.198062 152.264803 
L 299.434186 152.383664 
L 300.614806 152.372486 
L 301.087054 152.489268 
L 301.323178 151.697016 
L 301.559302 151.785559 
L 302.03155 151.66139 
L 302.739922 151.639106 
L 303.21217 151.503574 
L 304.156666 151.337992 
L 304.39279 151.393662 
L 305.101163 151.250124 
L 308.406899 151.145818 
L 308.879147 150.94662 
L 309.587519 150.912138 
L 309.823643 147.671135 
L 310.768139 147.69958 
L 311.240387 147.62635 
L 311.476511 147.719395 
L 312.184884 147.632342 
L 312.421008 147.671454 
L 312.657132 147.565966 
L 313.365504 147.578761 
L 313.837752 147.481907 
L 314.31 147.133028 
L 315.49062 147.037637 
L 316.435116 147.153143 
L 317.379612 147.004288 
L 317.615736 143.736736 
L 317.85186 143.728526 
L 318.324108 143.950586 
L 318.560232 140.122537 
L 319.268604 140.079289 
L 319.740853 140.133208 
L 319.976977 138.10349 
L 320.449225 138.173632 
L 320.921473 138.297033 
L 322.102093 138.153033 
L 322.338217 133.308459 
L 322.810465 133.249153 
L 323.282713 133.280738 
L 323.518837 128.602295 
L 323.991085 128.612163 
L 324.227209 123.843262 
L 324.463333 123.840283 
L 324.699457 118.867468 
L 324.935581 117.354323 
L 325.171705 113.486134 
L 325.407829 113.556382 
L 325.880077 113.495139 
L 326.116201 108.09169 
L 326.352325 106.402622 
L 326.588449 103.712908 
L 327.76907 103.579212 
L 328.005194 100.483868 
L 328.241318 100.464979 
L 328.477442 100.707076 
L 328.713566 100.517697 
L 331.074806 100.616544 
L 331.31093 99.859727 
L 332.255426 99.779056 
L 332.727674 99.667265 
L 332.963798 96.848259 
L 333.199922 96.829904 
L 333.436046 96.67449 
L 333.67217 90.285478 
L 334.144418 90.210915 
L 334.380543 88.602586 
L 334.852791 88.467959 
L 335.325039 88.574145 
L 335.561163 86.720853 
L 336.033411 86.58486 
L 336.269535 86.626876 
L 336.505659 86.42913 
L 336.741783 86.44492 
L 336.977907 83.667548 
L 337.214031 83.66321 
L 337.450155 83.151365 
L 337.686279 82.227735 
L 338.158527 82.237251 
L 339.103023 82.319243 
L 339.339147 82.257505 
L 339.575271 82.379427 
L 339.811395 82.336645 
L 340.047519 80.47416 
L 340.992015 80.497934 
L 341.228139 76.709373 
L 341.464263 76.716622 
L 341.700388 76.603037 
L 342.172636 76.66172 
L 342.40876 76.576982 
L 342.644884 75.672383 
L 343.117132 75.69308 
L 344.061628 75.486487 
L 344.297752 73.771259 
L 345.006124 73.753008 
L 345.478372 71.867628 
L 345.714496 71.818895 
L 345.95062 72.042448 
L 346.422868 71.945718 
L 347.13124 70.184999 
L 347.367364 70.136536 
L 347.603488 68.199721 
L 347.839612 68.285855 
L 348.075736 68.113496 
L 348.31186 64.174339 
L 348.784108 63.967445 
L 349.020233 62.527535 
L 349.256357 61.96947 
L 349.492481 58.043896 
L 349.728605 56.9356 
L 349.964729 54.775683 
L 350.200853 54.11607 
L 350.909225 54.119206 
L 351.145349 53.389023 
L 351.381473 53.499636 
L 351.617597 53.371118 
L 352.089845 53.41811 
L 352.325969 52.210022 
L 352.562093 52.220723 
L 352.798217 52.082629 
L 353.270465 52.117164 
L 354.214961 47.839157 
L 354.451085 43.179992 
L 354.687209 41.595384 
L 354.923333 41.144841 
L 355.159457 41.165072 
L 355.395581 40.912553 
L 356.103953 41.009073 
L 356.340078 40.522719 
L 356.812326 40.414327 
L 357.04845 39.185288 
L 357.284574 39.109074 
L 357.520698 38.354277 
L 357.992946 38.471014 
L 358.22907 38.505954 
L 358.465194 37.432869 
L 358.937442 37.248443 
L 359.173566 34.966835 
L 359.645814 34.93131 
L 359.881938 34.952727 
L 360.118062 34.16401 
L 360.354186 34.212233 
L 360.59031 33.373327 
L 360.826434 33.324789 
L 361.062558 33.487708 
L 361.298682 33.31712 
L 361.77093 33.577759 
L 362.479302 33.745315 
L 362.715426 33.7364 
L 362.95155 31.330161 
L 363.187674 31.193823 
L 363.423798 30.353476 
L 363.659922 30.286853 
L 363.896047 29.784635 
L 364.132171 29.883152 
L 364.368295 29.836175 
L 364.604419 29.250569 
L 364.840543 29.174656 
L 365.076667 28.744074 
L 365.548915 28.858455 
L 366.021163 28.803118 
L 366.493411 27.683071 
L 366.729535 27.894647 
L 367.201783 27.798172 
L 367.437907 26.715331 
L 367.674031 26.845531 
L 368.146279 24.517007 
L 368.382403 23.669396 
L 368.618527 23.493315 
L 370.035271 23.424681 
L 370.271395 23.59815 
L 370.743643 23.101891 
L 370.979767 22.149865 
L 371.924264 22.034539 
L 372.160388 22.194996 
L 372.632636 21.770463 
L 372.86876 20.632585 
L 373.104884 20.371631 
L 373.341008 20.34436 
L 373.577132 19.098962 
L 373.813256 19.124926 
L 374.285504 18.348216 
L 374.521628 18.40627 
L 374.757752 17.910671 
L 375.466124 18.324323 
L 375.702248 18.34526 
L 375.938372 18.112056 
L 376.174496 16.896449 
L 376.41062 16.940635 
L 376.882868 16.827185 
L 377.59124 16.886334 
L 377.827364 16.401436 
L 378.299612 16.148256 
L 378.535737 16.120114 
L 378.771861 16.362668 
L 379.007985 16.277089 
L 379.244109 16.457613 
L 379.716357 16.346054 
L 380.188605 15.047915 
L 380.660853 14.764538 
L 380.896977 14.971866 
L 381.841473 15.025672 
L 382.077597 14.192365 
L 382.313721 13.768972 
L 382.549845 13.649128 
L 382.785969 13.153559 
L 383.022093 11.790733 
L 383.494341 11.871119 
L 383.730465 12.154001 
L 384.438837 12.152801 
L 384.674961 12.376759 
L 384.911085 12.358494 
L 385.147209 12.884035 
L 385.383333 12.918089 
L 385.619457 13.254087 
L 386.091706 13.118604 
L 386.32783 13.124803 
L 386.563954 13.452351 
L 387.272326 13.327644 
L 387.50845 12.762045 
L 387.744574 12.654253 
L 387.980698 13.192282 
L 388.68907 13.846251 
L 389.161318 13.833644 
L 389.397442 14.104294 
L 389.633566 14.052004 
L 389.86969 14.363118 
L 390.105814 13.913685 
L 390.341938 13.766601 
L 390.814186 14.43768 
L 391.05031 13.595698 
L 391.286434 13.535288 
L 391.522558 13.735668 
L 392.23093 13.7399 
L 392.467054 13.508363 
L 392.703178 13.537029 
L 392.939302 13.444351 
L 393.175427 13.891862 
L 393.411551 12.841711 
L 394.119923 14.678628 
L 394.356047 14.675341 
L 394.592171 13.923065 
L 394.828295 13.930615 
L 395.064419 14.198128 
L 395.536667 14.356078 
L 395.772791 15.209768 
L 396.008915 15.221174 
L 396.245039 15.51893 
L 396.953411 15.759653 
L 397.425659 16.465973 
L 397.661783 17.296654 
L 397.897907 17.687898 
L 398.134031 17.573112 
L 398.370155 17.955261 
L 398.606279 17.391568 
L 398.842403 18.033666 
L 399.078527 18.177689 
L 399.314651 18.115163 
L 399.550775 18.181111 
L 399.786899 17.997886 
L 400.023023 18.292324 
L 400.259147 18.187774 
L 400.495271 18.87014 
L 400.731396 19.176331 
L 401.203644 20.070348 
L 401.675892 20.078438 
L 401.912016 20.740302 
L 402.14814 20.796404 
L 402.384264 20.728836 
L 402.620388 19.980522 
L 402.856512 20.175033 
L 403.092636 20.135936 
L 403.32876 20.870112 
L 403.564884 20.858645 
L 403.801008 21.319874 
L 404.037132 23.518154 
L 404.273256 24.420396 
L 404.50938 24.463096 
L 405.217752 25.963956 
L 406.162248 25.939072 
L 406.634496 25.743089 
L 406.87062 25.742369 
L 407.342868 25.969584 
L 407.815116 25.807461 
L 408.523489 25.906083 
L 408.759613 27.037731 
L 409.231861 27.011976 
L 409.467985 27.182429 
L 409.704109 28.049701 
L 409.940233 29.386817 
L 410.176357 29.425435 
L 410.412481 29.948184 
L 410.884729 29.938474 
L 411.593101 29.525257 
L 411.829225 30.315144 
L 412.065349 30.423221 
L 412.301473 30.379366 
L 412.537597 30.669858 
L 412.773721 30.350024 
L 413.245969 30.414381 
L 413.482093 30.371532 
L 413.718217 31.17997 
L 413.954341 31.37154 
L 414.190465 31.33609 
L 414.426589 32.205358 
L 414.898837 32.159521 
L 415.134961 33.0201 
L 415.60721 33.003365 
L 415.843334 32.856041 
L 416.079458 33.384674 
L 417.023954 33.406496 
L 417.260078 33.881008 
L 417.496202 33.878742 
L 417.732326 33.683165 
L 418.676822 33.625562 
L 418.912946 33.491865 
L 419.14907 35.146803 
L 419.385194 35.387076 
L 419.621318 35.459883 
L 419.857442 36.30152 
L 421.038062 36.524188 
L 421.274186 36.398146 
L 421.746434 37.055252 
L 421.982558 37.812241 
L 422.454806 37.83615 
L 422.927055 37.960616 
L 423.163179 39.471607 
L 423.635427 39.794847 
L 423.871551 39.737589 
L 424.107675 40.47091 
L 425.052171 40.224153 
L 425.288295 40.325101 
L 425.524419 40.295279 
L 425.996667 42.432909 
L 426.232791 42.304706 
L 426.468915 43.15883 
L 426.705039 43.101167 
L 426.941163 43.903287 
L 427.649535 43.764592 
L 427.885659 43.930002 
L 428.121783 44.405264 
L 428.594031 46.408417 
L 429.538527 46.69292 
L 429.774651 46.891589 
L 430.2469 48.969245 
L 430.719148 49.149243 
L 431.42752 49.206111 
L 431.899768 49.137897 
L 433.316512 48.732499 
L 433.552636 49.91162 
L 433.78876 49.857874 
L 434.024884 49.681463 
L 434.96938 49.66722 
L 435.205504 49.726579 
L 435.677752 49.56225 
L 435.913876 49.648534 
L 436.15 50.347755 
L 436.622248 50.386988 
L 437.094496 50.456958 
L 437.33062 50.4181 
L 437.566745 51.465911 
L 438.038993 51.494712 
L 438.275117 52.642555 
L 438.511241 52.970313 
L 438.983489 52.691753 
L 439.219613 55.183346 
L 439.455737 55.217506 
L 440.164109 54.659621 
L 440.400233 55.447618 
L 441.108605 55.420272 
L 441.344729 55.371404 
L 441.816977 55.428392 
L 442.053101 56.798692 
L 442.289225 56.733164 
L 442.997597 56.818473 
L 443.705969 56.562712 
L 443.942093 56.28846 
L 446.06721 56.206393 
L 446.303334 57.486476 
L 446.775582 57.752669 
L 447.24783 57.6685 
L 447.956202 58.032534 
L 448.192326 57.926243 
L 448.664574 58.107307 
L 449.136822 58.097416 
L 450.081318 58.586832 
L 450.553566 58.793755 
L 450.78969 60.055814 
L 451.97031 59.479693 
L 452.206435 59.468482 
L 452.442559 59.673199 
L 452.678683 60.901323 
L 453.150931 60.724012 
L 453.387055 60.661471 
L 453.623179 60.871756 
L 454.331551 60.848898 
L 454.331551 60.848898 
" clip-path="url(#p82dc9d2807)" style="fill: none; stroke: #0000ff; stroke-width: 1.5; stroke-linecap: square"/>
   </g>
   <g id="line2d_54">
    <path d="M 265.668449 204.184579 
L 283.85 204.13473 
L 284.086124 202.312705 
L 285.502868 202.346174 
L 285.738992 202.436493 
L 285.975116 201.804547 
L 288.336356 201.636475 
L 289.044728 201.691903 
L 289.989224 201.653778 
L 291.405969 201.637874 
L 291.878217 201.545546 
L 292.586589 201.583746 
L 294.003333 201.65482 
L 294.239457 200.35897 
L 294.711705 200.381821 
L 294.947829 200.334591 
L 295.420077 200.389225 
L 296.128449 200.448937 
L 296.364573 199.605057 
L 298.253566 199.585486 
L 298.961938 199.598405 
L 299.198062 198.96645 
L 299.67031 198.989538 
L 301.087054 198.94461 
L 301.323178 198.396267 
L 301.795426 198.391009 
L 302.267674 198.437647 
L 302.739922 198.368226 
L 302.976046 197.843222 
L 304.39279 197.904076 
L 305.573411 197.808814 
L 306.281783 197.892696 
L 306.990155 197.871065 
L 308.643023 197.841007 
L 309.351395 197.820407 
L 309.587519 197.808787 
L 309.823643 197.02815 
L 311.004263 197.074042 
L 311.476511 197.099051 
L 312.421008 197.104314 
L 312.657132 197.13005 
L 313.12938 197.04268 
L 313.837752 197.074713 
L 314.073876 196.521291 
L 314.782248 196.569702 
L 317.379612 196.596279 
L 317.615736 196.119876 
L 317.85186 196.110596 
L 318.087984 195.966769 
L 318.324108 195.992991 
L 318.560232 195.437214 
L 319.504729 195.481877 
L 319.740853 195.534239 
L 319.976977 195.017117 
L 320.449225 195.000084 
L 320.921473 194.997861 
L 321.393721 194.998455 
L 321.865969 195.030659 
L 322.102093 194.993284 
L 322.338217 194.608676 
L 323.282713 194.58957 
L 323.518837 194.260508 
L 323.991085 194.231012 
L 324.227209 193.968439 
L 324.463333 193.962542 
L 324.935581 193.29616 
L 325.171705 193.109262 
L 325.880077 193.094483 
L 326.588449 191.939274 
L 327.76907 191.934859 
L 328.005194 191.472954 
L 328.241318 191.530883 
L 328.477442 191.4682 
L 328.94969 191.542057 
L 329.421938 191.515929 
L 331.074806 191.486439 
L 331.31093 191.026579 
L 331.783178 190.965554 
L 333.199922 190.857725 
L 333.67217 190.224075 
L 334.144418 190.199431 
L 334.380543 189.618377 
L 335.088915 189.696834 
L 335.325039 189.653784 
L 335.561163 189.258487 
L 336.269535 189.248552 
L 336.505659 189.006566 
L 336.741783 188.964178 
L 336.977907 188.718328 
L 337.214031 188.708 
L 337.922403 188.203373 
L 340.992015 188.197079 
L 341.228139 187.998296 
L 341.700388 188.033392 
L 342.40876 188.053588 
L 342.644884 187.843463 
L 343.58938 187.845732 
L 344.061628 187.850626 
L 344.297752 187.689931 
L 345.006124 187.696762 
L 345.242248 187.488 
L 345.478372 187.011587 
L 345.95062 186.767829 
L 346.422868 186.763868 
L 346.895116 186.091286 
L 347.367364 185.881381 
L 347.603488 185.377057 
L 347.839612 185.319645 
L 348.075736 185.432714 
L 348.31186 185.026765 
L 348.784108 185.207677 
L 349.492481 184.385731 
L 349.964729 184.157893 
L 350.200853 183.762848 
L 350.909225 183.726199 
L 351.617597 183.432175 
L 352.089845 183.486238 
L 352.325969 183.300294 
L 353.270465 183.277993 
L 354.451085 182.26798 
L 355.631705 181.824489 
L 355.867829 181.810897 
L 356.340078 181.505624 
L 356.812326 181.489671 
L 357.04845 181.369571 
L 357.520698 181.36876 
L 358.465194 181.045528 
L 358.701318 180.897813 
L 358.937442 180.93665 
L 359.173566 180.679612 
L 359.881938 180.759833 
L 361.77093 180.108811 
L 362.715426 180.08121 
L 363.187674 179.849995 
L 363.423798 179.765525 
L 363.659922 179.871358 
L 365.076667 179.520817 
L 365.785039 179.571021 
L 366.021163 179.456631 
L 366.257287 179.485237 
L 366.729535 179.157975 
L 367.674031 178.976025 
L 367.910155 178.908209 
L 368.382403 178.939718 
L 368.618527 178.81118 
L 369.326899 178.889022 
L 372.396512 178.605318 
L 373.104884 178.585203 
L 373.813256 178.385848 
L 375.702248 178.199497 
L 376.882868 178.165124 
L 380.188605 178.222789 
L 380.660853 178.275125 
L 381.133101 178.237936 
L 381.605349 178.251145 
L 382.313721 178.300621 
L 382.549845 178.306096 
L 383.022093 178.510582 
L 383.730465 178.477882 
L 383.966589 178.656502 
L 385.147209 178.728184 
L 386.091706 178.82006 
L 387.272326 178.932759 
L 389.161318 179.130531 
L 389.397442 179.264451 
L 389.86969 179.245724 
L 391.758682 179.734507 
L 392.939302 179.778683 
L 394.592171 180.451791 
L 396.245039 180.736575 
L 396.481163 180.97763 
L 397.661783 181.415797 
L 398.606279 181.871575 
L 399.078527 181.88882 
L 399.314651 181.885424 
L 399.550775 182.060629 
L 400.259147 182.215574 
L 400.731396 182.638561 
L 401.439768 182.932296 
L 401.675892 182.947504 
L 401.912016 183.234566 
L 402.384264 183.219364 
L 402.620388 183.410596 
L 403.092636 183.337981 
L 403.32876 183.689446 
L 403.564884 183.702973 
L 403.801008 183.836251 
L 404.037132 184.429455 
L 404.981628 184.925885 
L 405.217752 185.161207 
L 408.523489 185.329481 
L 408.759613 185.659269 
L 409.231861 185.651277 
L 410.176357 186.498732 
L 410.412481 186.697658 
L 411.120853 186.683103 
L 411.356977 186.858573 
L 411.593101 186.845185 
L 411.829225 187.040567 
L 412.537597 187.027007 
L 413.245969 186.953116 
L 413.482093 186.93816 
L 413.954341 187.336488 
L 414.190465 187.358245 
L 414.426589 187.570963 
L 414.898837 187.626728 
L 415.134961 187.843099 
L 415.843334 187.888347 
L 416.079458 188.137328 
L 417.023954 188.14799 
L 417.260078 188.394065 
L 417.496202 188.418661 
L 417.732326 188.692466 
L 418.204574 188.67627 
L 418.912946 188.604026 
L 419.14907 189.109568 
L 419.385194 189.31758 
L 419.621318 189.314432 
L 419.857442 189.592504 
L 421.274186 189.551907 
L 422.218682 190.316466 
L 422.927055 190.348071 
L 423.163179 190.89186 
L 423.635427 190.844565 
L 423.871551 190.886463 
L 424.107675 191.193098 
L 425.052171 191.271312 
L 425.524419 191.245559 
L 425.996667 192.15785 
L 426.232791 192.145509 
L 426.468915 192.499188 
L 426.705039 192.516258 
L 426.941163 192.821736 
L 427.885659 192.885478 
L 428.830155 194.025588 
L 429.774651 194.030519 
L 430.2469 194.847126 
L 433.316512 194.714231 
L 433.552636 195.153211 
L 435.913876 195.206673 
L 436.15 195.592314 
L 437.33062 195.58524 
L 437.566745 196.031138 
L 438.038993 195.961931 
L 438.275117 196.43732 
L 438.747365 196.443249 
L 438.983489 196.412451 
L 439.219613 197.416777 
L 439.691861 197.445608 
L 440.164109 197.545469 
L 440.400233 198.139218 
L 441.580853 198.20192 
L 441.816977 198.270127 
L 442.053101 198.808933 
L 442.525349 198.756775 
L 443.233721 198.653972 
L 445.358838 198.650846 
L 446.06721 198.684794 
L 446.303334 199.337013 
L 449.60907 199.133778 
L 450.081318 199.179497 
L 450.553566 199.098114 
L 450.78969 199.806721 
L 451.261938 199.858647 
L 451.734186 199.803209 
L 451.97031 199.74968 
L 452.442559 199.859878 
L 452.678683 200.599917 
L 452.914807 200.55182 
L 453.387055 200.794685 
L 453.623179 200.999425 
L 454.331551 200.958399 
L 454.331551 200.958399 
" clip-path="url(#p82dc9d2807)" style="fill: none; stroke: #00ffff; stroke-width: 1.5; stroke-linecap: square"/>
   </g>
   <g id="patch_9">
    <path d="M 256.235294 213.84 
L 256.235294 2.16 
" style="fill: none; stroke: #000000; stroke-width: 0.8; stroke-linejoin: miter; stroke-linecap: square"/>
   </g>
   <g id="patch_10">
    <path d="M 463.764706 213.84 
L 463.764706 2.16 
" style="fill: none; stroke: #000000; stroke-width: 0.8; stroke-linejoin: miter; stroke-linecap: square"/>
   </g>
   <g id="patch_11">
    <path d="M 256.235294 213.84 
L 463.764706 213.84 
" style="fill: none; stroke: #000000; stroke-width: 0.8; stroke-linejoin: miter; stroke-linecap: square"/>
   </g>
   <g id="patch_12">
    <path d="M 256.235294 2.16 
L 463.764706 2.16 
" style="fill: none; stroke: #000000; stroke-width: 0.8; stroke-linejoin: miter; stroke-linecap: square"/>
   </g>
   <g id="legend_2">
    <g id="patch_13">
     <path d="M 263.235294 39.51625 
L 349.957169 39.51625 
Q 351.957169 39.51625 351.957169 37.51625 
L 351.957169 9.16 
Q 351.957169 7.16 349.957169 7.16 
L 263.235294 7.16 
Q 261.235294 7.16 261.235294 9.16 
L 261.235294 37.51625 
Q 261.235294 39.51625 263.235294 39.51625 
z
" style="fill: #ffffff; opacity: 0.8; stroke: #cccccc; stroke-linejoin: miter"/>
    </g>
    <g id="line2d_55">
     <path d="M 265.235294 15.258437 
L 275.235294 15.258437 
L 285.235294 15.258437 
" style="fill: none; stroke: #0000ff; stroke-width: 1.5; stroke-linecap: square"/>
    </g>
    <g id="text_27">
     <!-- original Ys -->
     <g transform="translate(293.235294 18.758437) scale(0.1 -0.1)">
      <defs>
       <path id="DejaVuSans-59" d="M -13 4666 
L 666 4666 
L 1959 2747 
L 3244 4666 
L 3922 4666 
L 2272 2222 
L 2272 0 
L 1638 0 
L 1638 2222 
L -13 4666 
z
" transform="scale(0.015625)"/>
      </defs>
      <use xlink:href="#DejaVuSans-6f"/>
      <use xlink:href="#DejaVuSans-72" x="61.181641"/>
      <use xlink:href="#DejaVuSans-69" x="102.294922"/>
      <use xlink:href="#DejaVuSans-67" x="130.078125"/>
      <use xlink:href="#DejaVuSans-69" x="193.554688"/>
      <use xlink:href="#DejaVuSans-6e" x="221.337891"/>
      <use xlink:href="#DejaVuSans-61" x="284.716797"/>
      <use xlink:href="#DejaVuSans-6c" x="345.996094"/>
      <use xlink:href="#DejaVuSans-20" x="373.779297"/>
      <use xlink:href="#DejaVuSans-59" x="405.566406"/>
      <use xlink:href="#DejaVuSans-73" x="466.650391"/>
     </g>
    </g>
    <g id="line2d_56">
     <path d="M 265.235294 29.936562 
L 275.235294 29.936562 
L 285.235294 29.936562 
" style="fill: none; stroke: #00ffff; stroke-width: 1.5; stroke-linecap: square"/>
    </g>
    <g id="text_28">
     <!-- rebased Ys -->
     <g transform="translate(293.235294 33.436562) scale(0.1 -0.1)">
      <use xlink:href="#DejaVuSans-72"/>
      <use xlink:href="#DejaVuSans-65" x="38.863281"/>
      <use xlink:href="#DejaVuSans-62" x="100.386719"/>
      <use xlink:href="#DejaVuSans-61" x="163.863281"/>
      <use xlink:href="#DejaVuSans-73" x="225.142578"/>
      <use xlink:href="#DejaVuSans-65" x="277.242188"/>
      <use xlink:href="#DejaVuSans-64" x="338.765625"/>
      <use xlink:href="#DejaVuSans-20" x="402.242188"/>
      <use xlink:href="#DejaVuSans-59" x="434.029297"/>
      <use xlink:href="#DejaVuSans-73" x="495.113281"/>
     </g>
    </g>
   </g>
  </g>
  <g id="axes_3">
   <g id="patch_14">
    <path d="M 505.270588 213.84 
L 712.8 213.84 
L 712.8 2.16 
L 505.270588 2.16 
z
" style="fill: #ffffff"/>
   </g>
   <g id="matplotlib.axis_5">
    <g id="xtick_11">
     <g id="line2d_57">
      <path d="M 514.703743 213.84 
L 514.703743 2.16 
" clip-path="url(#p7d124d912a)" style="fill: none; stroke: #b0b0b0; stroke-width: 0.8; stroke-linecap: square"/>
     </g>
     <g id="line2d_58"/>
     <g id="text_29">
      <!-- 0 -->
      <g transform="translate(511.522493 224.938437) scale(0.1 -0.1)">
       <use xlink:href="#DejaVuSans-30"/>
      </g>
     </g>
    </g>
    <g id="xtick_12">
     <g id="line2d_59">
      <path d="M 561.92855 213.84 
L 561.92855 2.16 
" clip-path="url(#p7d124d912a)" style="fill: none; stroke: #b0b0b0; stroke-width: 0.8; stroke-linecap: square"/>
     </g>
     <g id="line2d_60"/>
     <g id="text_30">
      <!-- 200 -->
      <g transform="translate(552.3848 224.938437) scale(0.1 -0.1)">
       <use xlink:href="#DejaVuSans-32"/>
       <use xlink:href="#DejaVuSans-30" x="63.623047"/>
       <use xlink:href="#DejaVuSans-30" x="127.246094"/>
      </g>
     </g>
    </g>
    <g id="xtick_13">
     <g id="line2d_61">
      <path d="M 609.153356 213.84 
L 609.153356 2.16 
" clip-path="url(#p7d124d912a)" style="fill: none; stroke: #b0b0b0; stroke-width: 0.8; stroke-linecap: square"/>
     </g>
     <g id="line2d_62"/>
     <g id="text_31">
      <!-- 400 -->
      <g transform="translate(599.609606 224.938437) scale(0.1 -0.1)">
       <use xlink:href="#DejaVuSans-34"/>
       <use xlink:href="#DejaVuSans-30" x="63.623047"/>
       <use xlink:href="#DejaVuSans-30" x="127.246094"/>
      </g>
     </g>
    </g>
    <g id="xtick_14">
     <g id="line2d_63">
      <path d="M 656.378163 213.84 
L 656.378163 2.16 
" clip-path="url(#p7d124d912a)" style="fill: none; stroke: #b0b0b0; stroke-width: 0.8; stroke-linecap: square"/>
     </g>
     <g id="line2d_64"/>
     <g id="text_32">
      <!-- 600 -->
      <g transform="translate(646.834413 224.938437) scale(0.1 -0.1)">
       <use xlink:href="#DejaVuSans-36"/>
       <use xlink:href="#DejaVuSans-30" x="63.623047"/>
       <use xlink:href="#DejaVuSans-30" x="127.246094"/>
      </g>
     </g>
    </g>
    <g id="xtick_15">
     <g id="line2d_65">
      <path d="M 703.602969 213.84 
L 703.602969 2.16 
" clip-path="url(#p7d124d912a)" style="fill: none; stroke: #b0b0b0; stroke-width: 0.8; stroke-linecap: square"/>
     </g>
     <g id="line2d_66"/>
     <g id="text_33">
      <!-- 800 -->
      <g transform="translate(694.059219 224.938437) scale(0.1 -0.1)">
       <use xlink:href="#DejaVuSans-38"/>
       <use xlink:href="#DejaVuSans-30" x="63.623047"/>
       <use xlink:href="#DejaVuSans-30" x="127.246094"/>
      </g>
     </g>
    </g>
   </g>
   <g id="matplotlib.axis_6">
    <g id="ytick_15">
     <g id="line2d_67">
      <path d="M 505.270588 204.266802 
L 712.8 204.266802 
" clip-path="url(#p7d124d912a)" style="fill: none; stroke: #b0b0b0; stroke-width: 0.8; stroke-linecap: square"/>
     </g>
     <g id="line2d_68"/>
     <g id="text_34">
      <!-- 0.0 -->
      <g transform="translate(485.867463 208.066021) scale(0.1 -0.1)">
       <use xlink:href="#DejaVuSans-30"/>
       <use xlink:href="#DejaVuSans-2e" x="63.623047"/>
       <use xlink:href="#DejaVuSans-30" x="95.410156"/>
      </g>
     </g>
    </g>
    <g id="ytick_16">
     <g id="line2d_69">
      <path d="M 505.270588 161.270392 
L 712.8 161.270392 
" clip-path="url(#p7d124d912a)" style="fill: none; stroke: #b0b0b0; stroke-width: 0.8; stroke-linecap: square"/>
     </g>
     <g id="line2d_70"/>
     <g id="text_35">
      <!-- 0.1 -->
      <g transform="translate(485.867463 165.06961) scale(0.1 -0.1)">
       <use xlink:href="#DejaVuSans-30"/>
       <use xlink:href="#DejaVuSans-2e" x="63.623047"/>
       <use xlink:href="#DejaVuSans-31" x="95.410156"/>
      </g>
     </g>
    </g>
    <g id="ytick_17">
     <g id="line2d_71">
      <path d="M 505.270588 118.273981 
L 712.8 118.273981 
" clip-path="url(#p7d124d912a)" style="fill: none; stroke: #b0b0b0; stroke-width: 0.8; stroke-linecap: square"/>
     </g>
     <g id="line2d_72"/>
     <g id="text_36">
      <!-- 0.2 -->
      <g transform="translate(485.867463 122.0732) scale(0.1 -0.1)">
       <use xlink:href="#DejaVuSans-30"/>
       <use xlink:href="#DejaVuSans-2e" x="63.623047"/>
       <use xlink:href="#DejaVuSans-32" x="95.410156"/>
      </g>
     </g>
    </g>
    <g id="ytick_18">
     <g id="line2d_73">
      <path d="M 505.270588 75.27757 
L 712.8 75.27757 
" clip-path="url(#p7d124d912a)" style="fill: none; stroke: #b0b0b0; stroke-width: 0.8; stroke-linecap: square"/>
     </g>
     <g id="line2d_74"/>
     <g id="text_37">
      <!-- 0.3 -->
      <g transform="translate(485.867463 79.076789) scale(0.1 -0.1)">
       <use xlink:href="#DejaVuSans-30"/>
       <use xlink:href="#DejaVuSans-2e" x="63.623047"/>
       <use xlink:href="#DejaVuSans-33" x="95.410156"/>
      </g>
     </g>
    </g>
    <g id="ytick_19">
     <g id="line2d_75">
      <path d="M 505.270588 32.28116 
L 712.8 32.28116 
" clip-path="url(#p7d124d912a)" style="fill: none; stroke: #b0b0b0; stroke-width: 0.8; stroke-linecap: square"/>
     </g>
     <g id="line2d_76"/>
     <g id="text_38">
      <!-- 0.4 -->
      <g transform="translate(485.867463 36.080379) scale(0.1 -0.1)">
       <use xlink:href="#DejaVuSans-30"/>
       <use xlink:href="#DejaVuSans-2e" x="63.623047"/>
       <use xlink:href="#DejaVuSans-34" x="95.410156"/>
      </g>
     </g>
    </g>
   </g>
   <g id="line2d_77">
    <path d="M 514.703743 170.379909 
L 532.885294 170.434038 
L 533.121418 165.644204 
L 534.774286 165.642939 
L 535.01041 162.629455 
L 536.663278 162.625493 
L 537.37165 162.594265 
L 539.496767 162.649093 
L 540.913511 162.621956 
L 542.330255 162.593958 
L 543.038627 162.576217 
L 543.274751 154.914173 
L 545.163743 154.883977 
L 545.399867 151.158289 
L 547.997232 151.188645 
L 548.233356 147.770651 
L 550.122348 147.827167 
L 550.358472 144.236717 
L 551.775216 144.248531 
L 552.01134 141.740128 
L 552.719712 141.746464 
L 556.261573 141.685322 
L 558.622813 141.638609 
L 558.858937 137.896756 
L 559.331185 137.916259 
L 560.039557 137.873557 
L 562.636922 137.932494 
L 562.873046 137.905797 
L 563.10917 133.50302 
L 565.47041 133.542859 
L 566.414906 133.524535 
L 566.65103 128.492678 
L 567.359402 128.485656 
L 567.595526 126.733595 
L 568.776147 126.74054 
L 569.012271 124.100531 
L 569.720643 124.097295 
L 570.901263 124.093285 
L 571.137387 124.097545 
L 571.373511 122.929985 
L 572.318007 122.965422 
L 572.554131 121.748252 
L 573.026379 121.783484 
L 573.262503 118.411646 
L 573.498627 118.408327 
L 573.734751 115.568684 
L 574.206999 112.146769 
L 574.679247 112.145212 
L 574.915371 112.146948 
L 575.151496 110.703363 
L 575.623744 105.927259 
L 576.804364 105.90224 
L 577.040488 102.925795 
L 578.221108 102.919465 
L 579.401728 102.964275 
L 580.1101 102.905024 
L 580.346224 99.46622 
L 581.762968 99.422948 
L 581.999092 97.113814 
L 582.235216 97.098398 
L 582.707465 93.354969 
L 583.179713 93.354521 
L 583.415837 90.479434 
L 584.360333 90.502717 
L 584.596457 88.935009 
L 585.304829 88.917659 
L 585.540953 86.973748 
L 585.777077 86.964009 
L 586.013201 86.065394 
L 586.249325 86.107706 
L 586.721573 83.226071 
L 588.374441 83.167012 
L 588.846689 83.147445 
L 589.082813 81.444115 
L 589.555061 81.469512 
L 590.02731 81.427662 
L 590.263434 79.684942 
L 591.20793 79.698332 
L 591.444054 79.667374 
L 591.680178 76.702103 
L 592.624674 76.723527 
L 593.096922 76.787405 
L 593.333046 76.064161 
L 594.041418 76.095965 
L 594.277542 74.746108 
L 594.513666 70.718972 
L 594.74979 69.171036 
L 595.458162 69.175624 
L 595.694286 65.585468 
L 595.93041 64.034278 
L 596.166534 61.738368 
L 596.402658 61.757512 
L 596.638782 59.625172 
L 597.11103 59.593201 
L 597.347155 57.461386 
L 597.819403 57.498457 
L 598.527775 53.03097 
L 598.763899 52.66453 
L 599.236147 48.538253 
L 599.944519 48.557794 
L 600.180643 48.146634 
L 600.416767 48.158704 
L 600.652891 47.696634 
L 601.125139 47.783743 
L 601.361263 46.727055 
L 602.305759 46.714715 
L 603.014131 42.557441 
L 603.486379 39.323821 
L 603.722503 39.163993 
L 603.958627 38.315723 
L 604.430875 35.706449 
L 604.903124 35.747235 
L 605.139248 35.14425 
L 605.375372 33.275736 
L 605.84762 33.231259 
L 606.083744 33.022276 
L 606.319868 33.03814 
L 606.555992 32.284002 
L 607.264364 32.260386 
L 607.736612 30.474778 
L 607.972736 30.488053 
L 608.20886 29.444499 
L 608.917232 29.449035 
L 609.153356 28.653854 
L 609.38948 28.662363 
L 609.625604 27.305073 
L 610.097852 27.295078 
L 610.333976 26.140889 
L 610.806224 25.610469 
L 611.75072 25.600897 
L 611.986845 24.940429 
L 612.222969 24.918761 
L 612.459093 24.557754 
L 612.695217 24.5576 
L 612.931341 24.181793 
L 613.403589 24.162982 
L 613.639713 23.773131 
L 613.875837 23.784177 
L 614.348085 23.646786 
L 614.820333 23.588854 
L 615.056457 23.204936 
L 615.292581 23.233178 
L 615.528705 22.295275 
L 615.764829 21.902067 
L 616.237077 21.919404 
L 616.473201 21.374415 
L 616.709325 21.309218 
L 617.181573 18.910591 
L 617.417697 18.784348 
L 617.653821 17.901802 
L 618.598317 17.943729 
L 619.30669 17.931466 
L 619.542814 16.777585 
L 619.778938 16.800163 
L 620.015062 16.280917 
L 620.48731 16.283441 
L 620.959558 16.311542 
L 621.195682 15.523742 
L 621.66793 15.60429 
L 622.140178 15.102638 
L 622.376302 15.093258 
L 622.612426 14.751984 
L 622.84855 14.755393 
L 623.084674 14.638927 
L 623.320798 13.289684 
L 623.556922 13.32013 
L 623.793046 12.481343 
L 624.973666 12.794362 
L 625.20979 12.649629 
L 626.39041 12.65018 
L 626.862659 12.039493 
L 627.571031 12.447886 
L 627.807155 11.783087 
L 628.043279 11.781818 
L 628.279403 12.004793 
L 628.751651 11.954127 
L 628.987775 12.408009 
L 629.223899 13.12031 
L 630.168395 13.58971 
L 630.404519 13.296514 
L 630.876767 13.296463 
L 631.112891 13.642067 
L 631.349015 13.692247 
L 631.585139 13.524948 
L 632.057387 14.027908 
L 632.529635 14.020181 
L 632.765759 14.14809 
L 633.474131 14.065965 
L 633.710255 14.421577 
L 633.946379 14.416298 
L 634.182504 15.142732 
L 634.654752 15.342758 
L 635.363124 15.336927 
L 635.599248 15.707993 
L 637.015992 15.716297 
L 638.196612 16.91249 
L 638.432736 17.594409 
L 638.904984 17.675969 
L 639.141108 19.231247 
L 639.377232 19.246701 
L 640.085604 20.792048 
L 640.321728 20.778811 
L 640.557852 21.22503 
L 641.266224 21.219161 
L 641.502349 21.660704 
L 641.974597 21.677785 
L 642.210721 21.941137 
L 642.446845 22.503463 
L 642.919093 25.341364 
L 643.627465 27.015991 
L 643.863589 27.037864 
L 644.099713 27.661428 
L 644.571961 27.666451 
L 644.808085 28.431955 
L 645.044209 28.42396 
L 645.280333 28.982749 
L 645.752581 30.900226 
L 645.988705 30.895651 
L 646.224829 31.588013 
L 646.697077 33.699403 
L 647.877697 37.148579 
L 648.349945 37.132805 
L 648.586069 37.894478 
L 648.822194 37.907548 
L 649.058318 38.645362 
L 649.294442 38.633111 
L 649.76669 40.838799 
L 650.238938 42.37638 
L 650.711186 42.34655 
L 650.94731 44.007517 
L 651.419558 44.014142 
L 651.655682 44.585002 
L 652.12793 44.594587 
L 652.364054 46.347686 
L 652.600178 46.360564 
L 652.836302 46.981988 
L 653.072426 50.730473 
L 653.30855 51.708906 
L 653.544674 51.69613 
L 654.016922 53.667041 
L 654.253046 55.690629 
L 655.905914 55.691718 
L 656.142039 56.722035 
L 657.558783 56.756838 
L 657.794907 58.884001 
L 658.267155 58.8906 
L 658.739403 60.838728 
L 658.975527 63.109932 
L 659.211651 63.12003 
L 659.447775 64.276461 
L 660.156147 64.222271 
L 660.392271 65.426704 
L 660.628395 65.425909 
L 660.864519 66.633724 
L 662.517387 66.498153 
L 662.989635 68.932543 
L 663.225759 68.950995 
L 663.461884 70.177827 
L 663.934132 70.173726 
L 664.170256 71.454325 
L 664.878628 71.415857 
L 665.114752 72.617265 
L 666.059248 72.543419 
L 666.295372 73.856334 
L 666.531496 73.8616 
L 666.76762 75.111856 
L 667.94824 75.101322 
L 668.420488 79.245321 
L 668.656612 79.244232 
L 668.892736 80.651586 
L 670.073356 80.610517 
L 670.30948 80.596653 
L 671.017853 84.971789 
L 671.962349 85.007502 
L 672.198473 88.158114 
L 672.906845 88.16397 
L 673.142969 89.762174 
L 674.559713 89.760816 
L 674.795837 93.194206 
L 675.031961 94.923817 
L 675.268085 94.928392 
L 675.504209 96.363821 
L 675.740333 96.346278 
L 675.976457 98.110141 
L 676.920953 98.087896 
L 677.629325 103.98454 
L 678.809946 103.989896 
L 679.282194 108.103526 
L 681.879558 108.103167 
L 682.351806 108.095427 
L 682.58793 110.188922 
L 684.94917 110.247187 
L 685.185294 112.376785 
L 686.365915 112.341823 
L 686.602039 114.673618 
L 687.074287 114.662572 
L 687.310411 117.012769 
L 688.018783 116.993195 
L 688.254907 121.999072 
L 689.199403 122.000302 
L 689.435527 124.554016 
L 690.852271 124.50654 
L 691.088395 127.17745 
L 695.102504 127.15252 
L 695.338628 129.902306 
L 696.047 129.822905 
L 698.172116 129.806048 
L 699.352736 129.717036 
L 699.58886 129.746098 
L 699.824984 132.752874 
L 701.477853 132.719179 
L 701.713977 135.77245 
L 703.366845 135.808861 
L 703.366845 135.808861 
" clip-path="url(#p7d124d912a)" style="fill: none; stroke: #ff0000; stroke-width: 1.5; stroke-linecap: square"/>
   </g>
   <g id="line2d_78">
    <path d="M 514.703743 204.218182 
L 532.885294 204.217527 
L 533.121418 204.006023 
L 534.774286 203.961992 
L 535.246534 203.772256 
L 537.135526 203.80731 
L 540.677387 203.769841 
L 551.775216 203.720024 
L 554.136457 203.687624 
L 556.969945 203.675336 
L 560.511806 203.696341 
L 560.984054 203.693647 
L 562.400798 203.728957 
L 573.734751 203.401924 
L 574.443123 203.382216 
L 580.346224 203.311629 
L 581.526844 203.311228 
L 583.415837 203.214965 
L 584.596457 203.171621 
L 595.93041 202.873966 
L 596.402658 202.84274 
L 598.291651 202.699063 
L 599.472271 202.56674 
L 601.361263 202.619193 
L 605.611496 202.489323 
L 607.500488 202.507385 
L 615.056457 202.414531 
L 617.181573 202.119717 
L 619.778938 202.063839 
L 620.48731 202.016033 
L 621.904054 201.996426 
L 623.084674 201.982033 
L 623.556922 202.043254 
L 627.334907 202.04771 
L 630.404519 201.890672 
L 631.821263 201.820945 
L 632.529635 201.758586 
L 633.474131 201.814214 
L 635.127 201.81402 
L 636.543744 201.858326 
L 637.960488 201.839259 
L 639.377232 201.76404 
L 639.84948 201.557941 
L 640.793976 201.500091 
L 642.446845 201.505609 
L 643.391341 201.432158 
L 644.099713 201.451294 
L 645.280333 201.402902 
L 645.752581 201.329925 
L 650.002814 201.529391 
L 658.975527 201.685242 
L 660.392271 201.624422 
L 661.100643 201.599901 
L 662.281263 201.506615 
L 663.225759 201.567645 
L 664.170256 201.599093 
L 665.114752 201.62047 
L 666.531496 201.641583 
L 676.920953 201.55061 
L 679.990566 201.635405 
L 682.115682 201.605209 
L 682.58793 201.616528 
L 683.532426 201.543578 
L 688.018783 201.553552 
L 688.727155 201.555208 
L 691.324519 201.5562 
L 693.68576 201.531973 
L 696.047 201.556132 
L 696.519248 201.552744 
L 697.463744 201.550048 
L 698.644364 201.581709 
L 699.352736 201.556653 
L 703.366845 201.561495 
L 703.366845 201.561495 
" clip-path="url(#p7d124d912a)" style="fill: none; stroke: #ffc0cb; stroke-width: 1.5; stroke-linecap: square"/>
   </g>
   <g id="patch_15">
    <path d="M 505.270588 213.84 
L 505.270588 2.16 
" style="fill: none; stroke: #000000; stroke-width: 0.8; stroke-linejoin: miter; stroke-linecap: square"/>
   </g>
   <g id="patch_16">
    <path d="M 712.8 213.84 
L 712.8 2.16 
" style="fill: none; stroke: #000000; stroke-width: 0.8; stroke-linejoin: miter; stroke-linecap: square"/>
   </g>
   <g id="patch_17">
    <path d="M 505.270588 213.84 
L 712.8 213.84 
" style="fill: none; stroke: #000000; stroke-width: 0.8; stroke-linejoin: miter; stroke-linecap: square"/>
   </g>
   <g id="patch_18">
    <path d="M 505.270588 2.16 
L 712.8 2.16 
" style="fill: none; stroke: #000000; stroke-width: 0.8; stroke-linejoin: miter; stroke-linecap: square"/>
   </g>
   <g id="legend_3">
    <g id="patch_19">
     <path d="M 512.270588 39.51625 
L 599.734651 39.51625 
Q 601.734651 39.51625 601.734651 37.51625 
L 601.734651 9.16 
Q 601.734651 7.16 599.734651 7.16 
L 512.270588 7.16 
Q 510.270588 7.16 510.270588 9.16 
L 510.270588 37.51625 
Q 510.270588 39.51625 512.270588 39.51625 
z
" style="fill: #ffffff; opacity: 0.8; stroke: #cccccc; stroke-linejoin: miter"/>
    </g>
    <g id="line2d_79">
     <path d="M 514.270588 15.258437 
L 524.270588 15.258437 
L 534.270588 15.258437 
" style="fill: none; stroke: #ff0000; stroke-width: 1.5; stroke-linecap: square"/>
    </g>
    <g id="text_39">
     <!-- original Zs -->
     <g transform="translate(542.270588 18.758437) scale(0.1 -0.1)">
      <defs>
       <path id="DejaVuSans-5a" d="M 359 4666 
L 4025 4666 
L 4025 4184 
L 1075 531 
L 4097 531 
L 4097 0 
L 288 0 
L 288 481 
L 3238 4134 
L 359 4134 
L 359 4666 
z
" transform="scale(0.015625)"/>
      </defs>
      <use xlink:href="#DejaVuSans-6f"/>
      <use xlink:href="#DejaVuSans-72" x="61.181641"/>
      <use xlink:href="#DejaVuSans-69" x="102.294922"/>
      <use xlink:href="#DejaVuSans-67" x="130.078125"/>
      <use xlink:href="#DejaVuSans-69" x="193.554688"/>
      <use xlink:href="#DejaVuSans-6e" x="221.337891"/>
      <use xlink:href="#DejaVuSans-61" x="284.716797"/>
      <use xlink:href="#DejaVuSans-6c" x="345.996094"/>
      <use xlink:href="#DejaVuSans-20" x="373.779297"/>
      <use xlink:href="#DejaVuSans-5a" x="405.566406"/>
      <use xlink:href="#DejaVuSans-73" x="474.072266"/>
     </g>
    </g>
    <g id="line2d_80">
     <path d="M 514.270588 29.936562 
L 524.270588 29.936562 
L 534.270588 29.936562 
" style="fill: none; stroke: #ffc0cb; stroke-width: 1.5; stroke-linecap: square"/>
    </g>
    <g id="text_40">
     <!-- rebased Zs -->
     <g transform="translate(542.270588 33.436562) scale(0.1 -0.1)">
      <use xlink:href="#DejaVuSans-72"/>
      <use xlink:href="#DejaVuSans-65" x="38.863281"/>
      <use xlink:href="#DejaVuSans-62" x="100.386719"/>
      <use xlink:href="#DejaVuSans-61" x="163.863281"/>
      <use xlink:href="#DejaVuSans-73" x="225.142578"/>
      <use xlink:href="#DejaVuSans-65" x="277.242188"/>
      <use xlink:href="#DejaVuSans-64" x="338.765625"/>
      <use xlink:href="#DejaVuSans-20" x="402.242188"/>
      <use xlink:href="#DejaVuSans-5a" x="434.029297"/>
      <use xlink:href="#DejaVuSans-73" x="502.535156"/>
     </g>
    </g>
   </g>
  </g>
 </g>
 <defs>
  <clipPath id="p0fa611ce63">
   <rect x="7.2" y="2.16" width="207.529412" height="211.68"/>
  </clipPath>
  <clipPath id="p82dc9d2807">
   <rect x="256.235294" y="2.16" width="207.529412" height="211.68"/>
  </clipPath>
  <clipPath id="p7d124d912a">
   <rect x="505.270588" y="2.16" width="207.529412" height="211.68"/>
  </clipPath>
 </defs>
</svg>
